<svg version="1.1" xmlns="http://www.w3.org/2000/svg" style="display: block;" viewBox="0 0 2048 2048" width="768" height="768">
<defs>
	<linearGradient id="Gradient1" gradientUnits="userSpaceOnUse" x1="1063.64" y1="1252.95" x2="1107.97" y2="699.591">
		<stop class="stop0" offset="0" stop-opacity="1" stop-color="rgb(184,223,253)"/>
		<stop class="stop1" offset="1" stop-opacity="1" stop-color="rgb(227,243,254)"/>
	</linearGradient>
</defs>
<path transform="translate(0,0)" fill="rgb(255,255,255)" d="M 973.898 2048 L -0 2048 L -0 -0 L 982.315 0 L 1040.82 0 L 1089.67 0 L 2048 0 L 2048 2048 L 1060.1 2048 L 973.898 2048 z"/>
<path transform="translate(0,0)" fill="rgb(255,207,183)" d="M 1309.53 1781.51 C 1356.23 1802.45 1406.52 1813.52 1456.76 1821.71 L 1590.73 1837.23 C 1609.9 1838.62 1630.77 1841.95 1649.91 1840.02 C 1637.27 1853.07 1618.9 1863.9 1604.02 1874.29 C 1562.28 1903.41 1516.45 1930.36 1470.39 1952.05 C 1434.6 1968.89 1396.74 1983.07 1359.5 1996.46 L 1313.12 2011.49 L 1309.53 1781.51 z"/>
<path transform="translate(0,0)" fill="rgb(192,227,253)" d="M 1668.05 456.245 C 1675.03 453.569 1683.59 453.182 1691 451.89 C 1746.95 442.141 1804.56 444.757 1859.89 457.376 C 1862.65 458.005 1872.87 461.965 1874.5 460.679 C 1881.25 468.518 1885.96 478.674 1891.44 487.47 C 1927.18 544.836 1954.53 606.023 1977.86 669.336 C 1991.47 706.301 2001.34 744.964 2010.21 783.303 C 2030.85 872.512 2044.79 963.198 2041.75 1055.03 L 2040.43 1084.17 C 2040.18 1088.9 2040.4 1094.84 2039.26 1099.43 L 1836.62 1058.63 L 1831.87 1031.12 C 1831 1025.26 1830.98 1017.71 1827.54 1012.7 C 1822.06 1004.7 1812.21 1001.81 1803.24 999.919 C 1801.89 988.515 1797.65 972.765 1792.39 962.527 C 1786.08 950.226 1774.39 955.097 1763.48 951.062 C 1739.03 942.012 1751.02 906.346 1741.05 887.568 C 1739.68 884.985 1737.39 882.943 1734.75 881.72 C 1726.88 878.063 1716.55 877.756 1708 875.958 L 1679.46 868.692 C 1674.63 867.561 1669.53 867.472 1664.78 866.176 L 1663.17 865.716 C 1657.82 835.394 1648.94 806.806 1648.11 775.717 C 1652.12 758.011 1651.72 741.198 1653.54 723.293 C 1655.5 696.931 1661.86 669.967 1668.61 644.429 C 1676.64 614.027 1687.72 586.041 1684.45 553.978 L 1684.98 551 C 1688.91 549.206 1695.91 550.088 1700.5 549.338 L 1701.46 547.509 L 1699.9 544.561 C 1699.94 534.546 1697.24 525.198 1694.53 515.63 C 1688.38 493.894 1680.08 475.354 1668.05 456.245 z"/>
<path transform="translate(0,0)" fill="rgb(255,236,179)" d="M 1668.05 456.245 C 1675.03 453.569 1683.59 453.182 1691 451.89 C 1746.95 442.141 1804.56 444.757 1859.89 457.376 C 1862.65 458.005 1872.87 461.965 1874.5 460.679 C 1881.25 468.518 1885.96 478.674 1891.44 487.47 C 1927.18 544.836 1954.53 606.023 1977.86 669.336 C 1899.62 675.587 1821.36 689.059 1744.28 703.5 L 1684.26 715.864 L 1666.5 720.19 C 1662.13 721.434 1658.16 723.271 1653.54 723.293 C 1655.5 696.931 1661.86 669.967 1668.61 644.429 C 1676.64 614.027 1687.72 586.041 1684.45 553.978 L 1684.98 551 C 1688.91 549.206 1695.91 550.088 1700.5 549.338 L 1701.46 547.509 L 1699.9 544.561 C 1699.94 534.546 1697.24 525.198 1694.53 515.63 C 1688.38 493.894 1680.08 475.354 1668.05 456.245 z"/>
<path transform="translate(0,0)" fill="rgb(253,121,58)" d="M 1040.82 0 L 1089.67 0 L 1091.07 0.332781 C 1105.32 3.64705 1121.17 3.44051 1135.79 5.34991 C 1169.67 9.77369 1203.3 14.9611 1236.66 22.4461 C 1287.52 33.8592 1336.76 48.5893 1385.79 66.2056 C 1424.88 80.2531 1463.57 95.9721 1500.5 115.068 C 1590.37 161.533 1672.13 224.645 1742.88 296.674 C 1763.6 317.768 1783.11 340.612 1801.82 363.504 C 1810.8 374.49 1819.07 386.423 1828.79 396.747 C 1836.5 404.354 1842.18 414.786 1848.2 423.785 L 1874.5 460.679 C 1872.87 461.965 1862.65 458.005 1859.89 457.376 C 1804.56 444.757 1746.95 442.141 1691 451.89 C 1683.59 453.182 1675.03 453.569 1668.05 456.245 C 1650.16 432.951 1626.02 413.708 1596.13 409.642 C 1575.52 406.839 1560.23 412.164 1543.92 424.606 C 1547.02 418.235 1550.63 412.73 1551.59 405.588 L 1551.73 404.339 C 1552.15 396.257 1549.99 387.982 1547.52 380.358 C 1544.85 372.098 1539.74 362.996 1531.5 359.28 C 1525.87 356.74 1518.86 355.911 1513 358.142 C 1500.94 362.731 1496.43 372.885 1491.43 383.743 C 1476.35 381.341 1462.72 375.783 1447.11 375.386 C 1430.57 374.966 1413.82 380.539 1397.76 384.003 C 1392.67 385.101 1382.55 385.914 1378.82 389.5 C 1379.72 392.892 1381.46 394.061 1383.89 396.539 L 1381.96 397.123 C 1379.73 397.78 1377.63 398.078 1375.32 398.335 L 1366.24 408.229 C 1365.38 409.314 1365.8 408.894 1364.7 409.716 L 1363.62 410.524 C 1359.72 413.495 1356.84 417.531 1352.76 420.36 C 1340.39 428.939 1319.76 429.469 1305.33 427.695 C 1289.5 425.75 1242.26 411.934 1230.93 420.611 C 1227.23 423.446 1225.89 428.094 1225.45 432.531 C 1224.51 441.839 1226.44 451.006 1228.54 459.987 C 1228.85 461.319 1228.75 462.407 1228.5 463.734 C 1221.03 470.658 1200.45 470.371 1191 470.008 L 1183 469.177 C 1174.86 467.988 1167 464.753 1159 463.929 C 1155.04 468.703 1155.76 478.027 1156.29 484 C 1156.88 490.65 1159.23 497.375 1162.35 503.236 C 1158.22 511.327 1155.04 520.209 1152.21 528.844 C 1147.55 528.831 1141.99 526.77 1137.39 525.574 L 1105.29 517.166 L 1041.08 501.855 L 1040.12 352.431 C 1036.07 352.36 1032.24 352.29 1028.26 351.337 L 1027.42 351.123 C 1009.44 348.831 993.132 342.876 978.289 332.346 C 956.338 316.771 942.639 292.631 938.319 266.236 C 934.034 240.054 939.116 215.014 954.71 193.492 C 972.469 168.981 996.977 155.462 1026.42 150.901 C 1031.79 149.254 1037.42 149.936 1042.96 150.162 L 1040.82 0 z"/>
<path transform="translate(0,0)" fill="rgb(61,64,91)" d="M 1558.05 406.056 C 1559.01 400.938 1568.12 392.536 1572.33 389.433 C 1577.38 385.707 1583.68 385.442 1589.64 386.414 C 1592.72 388.767 1593.46 389.123 1594.89 392.873 C 1581.19 394.47 1570.74 402.702 1558.05 406.056 z"/>
<path transform="translate(0,0)" fill="rgb(255,201,104)" d="M 1594.89 392.873 C 1599.5 394.964 1606.66 393.958 1611.68 393.914 L 1655.97 392.938 L 1767.79 394.816 C 1787.72 395.568 1808.97 398.588 1828.79 396.747 C 1836.5 404.354 1842.18 414.786 1848.2 423.785 L 1874.5 460.679 C 1872.87 461.965 1862.65 458.005 1859.89 457.376 C 1804.56 444.757 1746.95 442.141 1691 451.89 C 1683.59 453.182 1675.03 453.569 1668.05 456.245 C 1650.16 432.951 1626.02 413.708 1596.13 409.642 C 1575.52 406.839 1560.23 412.164 1543.92 424.606 C 1547.02 418.235 1550.63 412.73 1551.59 405.588 L 1551.73 404.339 C 1553.74 404.956 1554.98 405.106 1556.54 406.526 L 1558.05 406.056 C 1570.74 402.702 1581.19 394.47 1594.89 392.873 z"/>
<path transform="translate(0,0)" fill="rgb(255,255,255)" d="M 1026.42 150.901 C 1055.17 150.703 1082.43 159.21 1103.33 179.772 C 1117.33 193.546 1126.08 210.691 1130.52 229.691 C 1136.74 256.339 1130.8 283.827 1116.4 306.626 C 1103.41 327.182 1081.76 343.466 1057.87 348.804 C 1047.77 351.061 1037.72 351.22 1027.42 351.123 C 1009.44 348.831 993.132 342.876 978.289 332.346 C 956.338 316.771 942.639 292.631 938.319 266.236 C 934.034 240.054 939.116 215.014 954.71 193.492 C 972.469 168.981 996.977 155.462 1026.42 150.901 z"/>
<path transform="translate(0,0)" fill="rgb(61,64,91)" d="M 1428.73 1028.87 C 1474.09 999.001 1515.47 962.948 1558.82 930.25 L 1619.33 888.938 L 1645.77 872.479 C 1651.41 869.217 1656.44 865.83 1663.17 865.716 L 1664.78 866.176 C 1669.53 867.472 1674.63 867.561 1679.46 868.692 L 1708 875.958 C 1716.55 877.756 1726.88 878.063 1734.75 881.72 C 1737.39 882.943 1739.68 884.985 1741.05 887.568 C 1751.02 906.346 1739.03 942.012 1763.48 951.062 C 1774.39 955.097 1786.08 950.226 1792.39 962.527 C 1797.65 972.765 1801.89 988.515 1803.24 999.919 C 1812.21 1001.81 1822.06 1004.7 1827.54 1012.7 C 1830.98 1017.71 1831 1025.26 1831.87 1031.12 L 1836.62 1058.63 L 2039.26 1099.43 C 2030.07 1206.34 2006.11 1310.31 1967.24 1410.34 C 1961.46 1425.21 1957.01 1441.84 1949.45 1455.8 C 1925.96 1512.65 1894.88 1564.5 1860.06 1615 C 1813.52 1682.49 1762.56 1743.53 1701.02 1798.08 C 1685.02 1812.26 1667.95 1828.51 1649.91 1840.02 C 1630.77 1841.95 1609.9 1838.62 1590.73 1837.23 L 1456.76 1821.71 C 1406.52 1813.52 1356.23 1802.45 1309.53 1781.51 C 1306.27 1779.2 1301.68 1777.48 1298.05 1775.74 L 1273.83 1764.24 L 1215.49 1734.96 C 1217.34 1716.95 1223.26 1699.02 1227.92 1681.54 C 1237.64 1645.02 1245.12 1606.22 1265.97 1574 C 1270.52 1566.96 1277.42 1556.15 1285.95 1554.31 L 1262.04 1549.42 C 1254.5 1548.18 1245.55 1547.64 1238.66 1544.3 C 1228.17 1539.19 1219.94 1525.27 1213.1 1516.13 L 1186.39 1479.52 C 1176.83 1465.49 1168.17 1451.43 1157.18 1438.37 C 1150.17 1430.03 1142.23 1423.08 1133.48 1416.61 C 1127.79 1405.94 1123.02 1396.83 1112.06 1390.73 C 1106.09 1388.03 1100.5 1385.81 1094.11 1384.32 C 1095.76 1382.62 1101.74 1380.67 1104.06 1379.69 L 1163.11 1358.01 C 1177.53 1351.99 1191.19 1343.48 1204.76 1335.73 C 1207.47 1364.25 1209.47 1396.7 1233 1416.33 C 1239.99 1422.17 1247.5 1425.81 1254.96 1430.68 L 1271.83 1398.11 C 1292.42 1362.75 1317.78 1328.34 1344.84 1297.7 C 1356.26 1284.78 1367.65 1271.89 1380.64 1260.51 L 1374.81 1232.3 L 1371.5 1232.15 L 1342.26 1228.12 C 1340.73 1227.9 1335.99 1227.88 1335 1227.27 C 1334.26 1226.82 1333.88 1225.96 1333.32 1225.3 L 1335.86 1216 C 1339.74 1195.54 1338.49 1179.1 1333.89 1158.97 C 1333.76 1155.53 1332.53 1149.44 1333.19 1146.29 C 1334.76 1138.81 1343.69 1135.83 1343.51 1126.55 L 1343.42 1124.55 L 1344.81 1124.11 L 1346.16 1122.47 C 1346.33 1117.24 1345.68 1111.58 1342 1107.51 L 1340.76 1108.5 L 1340.51 1116 C 1339.59 1117.38 1338.88 1118.69 1338.13 1120.16 C 1334.84 1113.36 1323.13 1099.97 1324.86 1092.39 C 1325.4 1090.02 1326.59 1088.08 1328.43 1086.5 C 1333.25 1082.35 1339.7 1079.41 1345 1075.84 C 1357.79 1067.21 1369.24 1057.94 1383.15 1050.91 C 1397.65 1043.59 1414.85 1039.52 1427.81 1029.59 L 1428.73 1028.87 z"/>
<path transform="translate(0,0)" fill="rgb(211,64,23)" d="M 1094.11 1384.32 C 1095.76 1382.62 1101.74 1380.67 1104.06 1379.69 L 1163.11 1358.01 C 1177.53 1351.99 1191.19 1343.48 1204.76 1335.73 C 1207.47 1364.25 1209.47 1396.7 1233 1416.33 C 1239.99 1422.17 1247.5 1425.81 1254.96 1430.68 C 1298.51 1443.91 1344.43 1459.29 1382.13 1485.22 C 1400.26 1497.69 1416.2 1513.37 1434.66 1525.11 L 1439.24 1527.71 C 1429.04 1533.77 1414.25 1536.6 1402.81 1539.87 C 1374 1548.12 1344 1558.33 1313.64 1557.95 C 1304.48 1557.83 1294.91 1556.18 1285.95 1554.31 L 1262.04 1549.42 C 1254.5 1548.18 1245.55 1547.64 1238.66 1544.3 C 1228.17 1539.19 1219.94 1525.27 1213.1 1516.13 L 1186.39 1479.52 C 1176.83 1465.49 1168.17 1451.43 1157.18 1438.37 C 1150.17 1430.03 1142.23 1423.08 1133.48 1416.61 C 1127.79 1405.94 1123.02 1396.83 1112.06 1390.73 C 1106.09 1388.03 1100.5 1385.81 1094.11 1384.32 z"/>
<path transform="translate(0,0)" fill="rgb(154,203,245)" d="M 1836.62 1058.63 L 2039.26 1099.43 C 2030.07 1206.34 2006.11 1310.31 1967.24 1410.34 C 1961.46 1425.21 1957.01 1441.84 1949.45 1455.8 C 1941.16 1448.15 1933.82 1438.84 1925.98 1430.65 L 1909.16 1413.48 C 1906.11 1410.36 1902.06 1407.02 1900.25 1403 C 1895.3 1391.99 1893.97 1376.85 1891.64 1365 L 1872.04 1256.54 L 1836.62 1058.63 z"/>
<path transform="translate(0,0)" fill="rgb(211,64,23)" d="M 1428.73 1028.87 C 1474.09 999.001 1515.47 962.948 1558.82 930.25 L 1619.33 888.938 L 1645.77 872.479 C 1651.41 869.217 1656.44 865.83 1663.17 865.716 L 1664.78 866.176 C 1669.53 867.472 1674.63 867.561 1679.46 868.692 L 1708 875.958 C 1716.55 877.756 1726.88 878.063 1734.75 881.72 C 1737.39 882.943 1739.68 884.985 1741.05 887.568 C 1751.02 906.346 1739.03 942.012 1763.48 951.062 C 1774.39 955.097 1786.08 950.226 1792.39 962.527 C 1797.65 972.765 1801.89 988.515 1803.24 999.919 C 1793.3 1006.81 1779.88 1010.98 1768.88 1016.33 L 1710.5 1047.18 C 1620.7 1098.75 1531.5 1150.2 1447.16 1210.54 L 1380.64 1260.51 L 1374.81 1232.3 L 1371.5 1232.15 L 1342.26 1228.12 C 1340.73 1227.9 1335.99 1227.88 1335 1227.27 C 1334.26 1226.82 1333.88 1225.96 1333.32 1225.3 L 1335.86 1216 C 1339.74 1195.54 1338.49 1179.1 1333.89 1158.97 C 1333.76 1155.53 1332.53 1149.44 1333.19 1146.29 C 1334.76 1138.81 1343.69 1135.83 1343.51 1126.55 L 1343.42 1124.55 L 1344.81 1124.11 L 1346.16 1122.47 C 1346.33 1117.24 1345.68 1111.58 1342 1107.51 L 1340.76 1108.5 L 1340.51 1116 C 1339.59 1117.38 1338.88 1118.69 1338.13 1120.16 C 1334.84 1113.36 1323.13 1099.97 1324.86 1092.39 C 1325.4 1090.02 1326.59 1088.08 1328.43 1086.5 C 1333.25 1082.35 1339.7 1079.41 1345 1075.84 C 1357.79 1067.21 1369.24 1057.94 1383.15 1050.91 C 1397.65 1043.59 1414.85 1039.52 1427.81 1029.59 L 1428.73 1028.87 z"/>
<path transform="translate(0,0)" fill="rgb(255,255,255)" d="M 1333.89 1158.97 C 1333.76 1155.53 1332.53 1149.44 1333.19 1146.29 C 1334.76 1138.81 1343.69 1135.83 1343.51 1126.55 L 1343.42 1124.55 L 1344.81 1124.11 C 1356.55 1148.86 1362.62 1174.87 1368.25 1201.5 C 1370.41 1211.74 1373.2 1221.96 1374.81 1232.3 L 1371.5 1232.15 L 1342.26 1228.12 C 1340.73 1227.9 1335.99 1227.88 1335 1227.27 C 1334.26 1226.82 1333.88 1225.96 1333.32 1225.3 L 1335.86 1216 C 1339.74 1195.54 1338.49 1179.1 1333.89 1158.97 z"/>
<path transform="translate(0,0)" fill="url(#Gradient1)" d="M 1383.89 396.539 C 1381.46 394.061 1379.72 392.892 1378.82 389.5 C 1382.55 385.914 1392.67 385.101 1397.76 384.003 C 1413.82 380.539 1430.57 374.966 1447.11 375.386 C 1462.72 375.783 1476.35 381.341 1491.43 383.743 C 1496.43 372.885 1500.94 362.731 1513 358.142 C 1518.86 355.911 1525.87 356.74 1531.5 359.28 C 1539.74 362.996 1544.85 372.098 1547.52 380.358 C 1549.99 387.982 1552.15 396.257 1551.73 404.339 L 1551.59 405.588 C 1550.63 412.73 1547.02 418.235 1543.92 424.606 C 1560.23 412.164 1575.52 406.839 1596.13 409.642 C 1626.02 413.708 1650.16 432.951 1668.05 456.245 C 1680.08 475.354 1688.38 493.894 1694.53 515.63 C 1697.24 525.198 1699.94 534.546 1699.9 544.561 L 1701.46 547.509 L 1700.5 549.338 C 1695.91 550.088 1688.91 549.206 1684.98 551 L 1684.45 553.978 C 1687.72 586.041 1676.64 614.027 1668.61 644.429 C 1661.86 669.967 1655.5 696.931 1653.54 723.293 C 1651.72 741.198 1652.12 758.011 1648.11 775.717 C 1648.94 806.806 1657.82 835.394 1663.17 865.716 C 1656.44 865.83 1651.41 869.217 1645.77 872.479 L 1619.33 888.938 L 1558.82 930.25 C 1515.47 962.948 1474.09 999.001 1428.73 1028.87 L 1427.81 1029.59 C 1414.85 1039.52 1397.65 1043.59 1383.15 1050.91 C 1369.24 1057.94 1357.79 1067.21 1345 1075.84 C 1339.7 1079.41 1333.25 1082.35 1328.43 1086.5 C 1326.59 1088.08 1325.4 1090.02 1324.86 1092.39 C 1323.13 1099.97 1334.84 1113.36 1338.13 1120.16 C 1338.88 1118.69 1339.59 1117.38 1340.51 1116 L 1340.76 1108.5 L 1342 1107.51 C 1345.68 1111.58 1346.33 1117.24 1346.16 1122.47 L 1344.81 1124.11 L 1343.42 1124.55 L 1343.51 1126.55 C 1343.69 1135.83 1334.76 1138.81 1333.19 1146.29 C 1332.53 1149.44 1333.76 1155.53 1333.89 1158.97 C 1338.49 1179.1 1339.74 1195.54 1335.86 1216 L 1333.32 1225.3 C 1333.88 1225.96 1334.26 1226.82 1335 1227.27 C 1335.99 1227.88 1340.73 1227.9 1342.26 1228.12 L 1371.5 1232.15 L 1374.81 1232.3 L 1380.64 1260.51 C 1367.65 1271.89 1356.26 1284.78 1344.84 1297.7 C 1317.78 1328.34 1292.42 1362.75 1271.83 1398.11 L 1254.96 1430.68 C 1247.5 1425.81 1239.99 1422.17 1233 1416.33 C 1209.47 1396.7 1207.47 1364.25 1204.76 1335.73 C 1191.19 1343.48 1177.53 1351.99 1163.11 1358.01 L 1104.06 1379.69 C 1101.74 1380.67 1095.76 1382.62 1094.11 1384.32 C 1087.9 1386.75 1079.84 1388.98 1076.26 1395.02 C 1057.17 1397.57 1035.79 1395.36 1016.65 1393.83 L 978.744 1387.32 C 947.296 1378 915.159 1367.34 888.586 1347.47 C 879.176 1340.44 869.501 1331.08 862.776 1321.44 C 861.674 1319.86 859.039 1316.77 858.52 1315.02 C 858.085 1313.55 858.682 1310.16 858.799 1308.54 C 859.162 1303.58 859.434 1299.05 858.701 1294.1 L 858.513 1292.94 C 859.673 1280.31 864.374 1267.99 872.487 1258.22 L 882.119 1241.32 C 867.907 1237.35 852.58 1235.85 838 1233.66 L 771.916 1224.52 C 766.145 1223.85 760.284 1222.76 754.5 1222.35 C 748.997 1221.95 743.076 1222.76 737.833 1220.89 C 737.51 1221.16 737.262 1221.56 736.865 1221.69 C 735.245 1222.22 730.878 1221.4 729.087 1221.25 L 707.575 1219.71 L 662.333 1218.05 C 660.205 1210.25 656.432 1203.17 652.811 1196 L 651.318 1198.46 C 647.042 1197.5 638.985 1196.15 635.625 1193.56 L 634.5 1192.6 C 627.947 1188.1 623.855 1179.75 616.747 1176.65 L 586.361 1129.23 C 595.636 1118.87 605.397 1110.66 613.133 1098.91 C 608.409 1082.96 604.221 1067.31 602.56 1050.71 C 599.762 1022.74 605.898 992.698 613.891 966 C 617.632 953.504 621.638 940.318 630.032 930.128 C 632.102 929.232 634.275 928.076 636.602 928.271 C 644.145 928.904 654.758 935.395 661.818 938.327 C 671.873 942.502 682.36 946.05 693.159 947.675 C 705.746 949.57 717.24 947.935 727.5 939.751 C 742.797 927.547 745.164 907.874 746.804 889.85 L 759.067 890.879 L 757.347 886.812 C 756.42 883.39 757.453 881.984 758.953 879.063 C 761.57 877.435 763.659 875.199 765.894 873.088 C 772.404 862.87 776.734 850.483 785.129 841.614 C 791.549 834.831 799.977 830.331 807.71 825.265 C 820.777 816.707 832.276 802.397 837.258 787.533 C 826.174 777.759 811.552 771.429 803.949 758.175 C 801.551 753.994 799.184 748.714 798.915 743.89 C 798.543 737.219 801.233 729.389 803.181 723.082 C 808.297 706.512 815.508 690.59 820.202 673.925 C 820.409 670.5 822.105 668.136 824.442 665.833 C 835.793 653.194 840.155 630.459 842.246 614 C 844.978 592.503 841.754 570.9 837.51 549.83 L 815.185 484.039 C 817.283 483.343 819.358 483.568 821.5 483.177 C 827.686 482.048 833.917 482.414 840.2 481.905 C 855.004 480.705 869.51 479.146 884.396 479.05 C 893.713 478.99 903.177 479.867 912.444 478.955 L 1006 494.03 C 1017.63 496.346 1029.78 498.299 1041.08 501.855 L 1105.29 517.166 L 1137.39 525.574 C 1141.99 526.77 1147.55 528.831 1152.21 528.844 C 1155.04 520.209 1158.22 511.327 1162.35 503.236 C 1159.23 497.375 1156.88 490.65 1156.29 484 C 1155.76 478.027 1155.04 468.703 1159 463.929 C 1167 464.753 1174.86 467.988 1183 469.177 L 1191 470.008 C 1200.45 470.371 1221.03 470.658 1228.5 463.734 C 1228.75 462.407 1228.85 461.319 1228.54 459.987 C 1226.44 451.006 1224.51 441.839 1225.45 432.531 C 1225.89 428.094 1227.23 423.446 1230.93 420.611 C 1242.26 411.934 1289.5 425.75 1305.33 427.695 C 1319.76 429.469 1340.39 428.939 1352.76 420.36 C 1356.84 417.531 1359.72 413.495 1363.62 410.524 L 1364.7 409.716 C 1365.8 408.894 1365.38 409.314 1366.24 408.229 L 1375.32 398.335 C 1377.63 398.078 1379.73 397.78 1381.96 397.123 L 1383.89 396.539 z"/>
<path transform="translate(0,0)" fill="rgb(253,186,163)" d="M 1248.06 875.64 C 1243.6 874.452 1239.17 871.348 1235.79 868.222 C 1233.53 866.129 1232.37 864.105 1232.19 861 C 1233.53 857.254 1235.28 855.253 1238.02 852.412 C 1241.26 854.162 1244.75 855.312 1248.49 855.199 L 1258.9 856.256 C 1258.73 861.872 1250.11 869.519 1248.06 875.64 z"/>
<path transform="translate(0,0)" fill="rgb(61,64,91)" d="M 746.804 889.85 L 759.067 890.879 C 762.221 893.358 762.017 896.466 762.519 900.387 C 764.424 915.249 764.295 930.188 762.412 945.044 C 759.894 964.916 753.37 982.774 746.416 1001.41 C 742.826 1011.04 737.862 1021.98 736.703 1032.22 C 734.963 1047.61 739.174 1065.72 741.214 1081.15 C 743.494 1098.38 745.422 1115.78 745.904 1133.17 C 746.294 1147.19 745.833 1160.95 744.048 1174.87 C 742.089 1190.16 738.678 1205.49 737.833 1220.89 C 737.51 1221.16 737.262 1221.56 736.865 1221.69 C 735.245 1222.22 730.878 1221.4 729.087 1221.25 L 707.575 1219.71 L 662.333 1218.05 C 660.205 1210.25 656.432 1203.17 652.811 1196 L 651.318 1198.46 C 647.042 1197.5 638.985 1196.15 635.625 1193.56 L 634.5 1192.6 C 627.947 1188.1 623.855 1179.75 616.747 1176.65 L 586.361 1129.23 C 595.636 1118.87 605.397 1110.66 613.133 1098.91 C 608.409 1082.96 604.221 1067.31 602.56 1050.71 C 599.762 1022.74 605.898 992.698 613.891 966 C 617.632 953.504 621.638 940.318 630.032 930.128 C 632.102 929.232 634.275 928.076 636.602 928.271 C 644.145 928.904 654.758 935.395 661.818 938.327 C 671.873 942.502 682.36 946.05 693.159 947.675 C 705.746 949.57 717.24 947.935 727.5 939.751 C 742.797 927.547 745.164 907.874 746.804 889.85 z"/>
<path transform="translate(0,0)" fill="rgb(192,227,253)" d="M 613.133 1098.91 L 652.811 1196 L 651.318 1198.46 C 647.042 1197.5 638.985 1196.15 635.625 1193.56 L 634.5 1192.6 C 627.947 1188.1 623.855 1179.75 616.747 1176.65 L 586.361 1129.23 C 595.636 1118.87 605.397 1110.66 613.133 1098.91 z"/>
<path transform="translate(0,0)" fill="rgb(255,236,179)" d="M 912.444 478.955 L 1006 494.03 C 1017.63 496.346 1029.78 498.299 1041.08 501.855 L 1105.29 517.166 L 1137.39 525.574 C 1141.99 526.77 1147.55 528.831 1152.21 528.844 L 1152.96 531.91 C 1147.42 535.287 1142.12 542.039 1138.83 547.582 C 1140.39 566.085 1147.51 578.77 1161.56 590.741 C 1167.38 595.699 1174.64 599.501 1181.43 602.993 L 1195.09 607.722 C 1199.5 610.208 1201.18 612.137 1202.59 617.09 L 1204.5 625.864 L 1208.55 647.082 C 1209.72 658.466 1211.35 671.09 1209.65 682.429 C 1207.93 693.924 1200.6 705.836 1193.32 714.701 C 1183.1 727.141 1170.12 737.657 1157.75 747.892 C 1151.74 745.762 1145.2 744.571 1139.04 742.791 L 1076.12 726.92 L 972.602 705.942 C 922.012 696.861 869.484 688.728 820.202 673.925 C 820.409 670.5 822.105 668.136 824.442 665.833 C 835.793 653.194 840.155 630.459 842.246 614 C 844.978 592.503 841.754 570.9 837.51 549.83 L 815.185 484.039 C 817.283 483.343 819.358 483.568 821.5 483.177 C 827.686 482.048 833.917 482.414 840.2 481.905 C 855.004 480.705 869.51 479.146 884.396 479.05 C 893.713 478.99 903.177 479.867 912.444 478.955 z"/>
<path transform="translate(0,0)" fill="rgb(255,201,104)" d="M 912.444 478.955 L 1006 494.03 C 1017.63 496.346 1029.78 498.299 1041.08 501.855 L 1105.29 517.166 L 1137.39 525.574 C 1141.99 526.77 1147.55 528.831 1152.21 528.844 L 1152.96 531.91 C 1147.42 535.287 1142.12 542.039 1138.83 547.582 C 1140.39 566.085 1147.51 578.77 1161.56 590.741 C 1167.38 595.699 1174.64 599.501 1181.43 602.993 L 1180.93 603.119 C 1177.81 603.957 1175.36 604.016 1172.22 603.384 C 1147.25 598.364 1122.67 589.727 1098.2 582.652 L 1020.31 563.61 C 985.528 556.33 949.451 551.367 913.993 548.935 C 902.057 548.116 890.401 546.984 878.409 547.072 C 864.752 547.173 851.099 548.574 837.51 549.83 L 815.185 484.039 C 817.283 483.343 819.358 483.568 821.5 483.177 C 827.686 482.048 833.917 482.414 840.2 481.905 C 855.004 480.705 869.51 479.146 884.396 479.05 C 893.713 478.99 903.177 479.867 912.444 478.955 z"/>
<path transform="translate(0,0)" fill="rgb(211,64,23)" d="M 893.61 1027.88 L 892.449 1027.56 C 888.488 1026.81 883.592 1028.02 879.501 1028.09 C 872.271 1028.22 865.424 1027.61 858.312 1026.37 C 843.219 1056.95 814.595 1112.32 780.75 1123.17 C 778.273 1123.96 776.938 1123.96 774.5 1123.17 C 766.082 1113.57 768.15 1089.26 768.94 1077.04 C 770.442 1053.81 774.35 1030.55 781.42 1008.34 C 785.979 994.026 791.431 980.275 803.093 970.201 C 814.286 960.532 827.948 953.781 839.827 944.987 C 862.977 927.849 876.333 905.265 908.417 908.253 C 929.46 910.212 947.036 920.567 967.226 925.108 C 981.878 928.403 998.913 925.955 1014 927.734 C 1023.53 928.858 1032.99 930.51 1042.13 933.5 C 1056.72 938.269 1070.52 944.863 1085.7 947.762 C 1096.61 949.845 1107.53 950.774 1118.62 950.818 C 1150.15 950.943 1189.3 946.677 1211.5 974.618 C 1221.71 987.466 1220.74 1002.24 1218.75 1017.54 L 1216.63 1039.06 C 1241.62 1060.1 1268.88 1078.62 1295.18 1097.97 C 1305.31 1105.42 1315.21 1115.21 1326.38 1120.91 C 1330.41 1120.96 1334.16 1120.84 1338.13 1120.16 C 1338.88 1118.69 1339.59 1117.38 1340.51 1116 L 1340.76 1108.5 L 1342 1107.51 C 1345.68 1111.58 1346.33 1117.24 1346.16 1122.47 L 1344.81 1124.11 L 1343.42 1124.55 L 1343.51 1126.55 C 1343.69 1135.83 1334.76 1138.81 1333.19 1146.29 C 1332.53 1149.44 1333.76 1155.53 1333.89 1158.97 C 1338.49 1179.1 1339.74 1195.54 1335.86 1216 L 1333.32 1225.3 C 1333.88 1225.96 1334.26 1226.82 1335 1227.27 C 1335.99 1227.88 1340.73 1227.9 1342.26 1228.12 L 1371.5 1232.15 L 1374.81 1232.3 L 1380.64 1260.51 C 1367.65 1271.89 1356.26 1284.78 1344.84 1297.7 C 1317.78 1328.34 1292.42 1362.75 1271.83 1398.11 L 1254.96 1430.68 C 1247.5 1425.81 1239.99 1422.17 1233 1416.33 C 1209.47 1396.7 1207.47 1364.25 1204.76 1335.73 C 1191.19 1343.48 1177.53 1351.99 1163.11 1358.01 L 1104.06 1379.69 C 1101.74 1380.67 1095.76 1382.62 1094.11 1384.32 C 1087.9 1386.75 1079.84 1388.98 1076.26 1395.02 C 1057.17 1397.57 1035.79 1395.36 1016.65 1393.83 L 978.744 1387.32 C 947.296 1378 915.159 1367.34 888.586 1347.47 C 879.176 1340.44 869.501 1331.08 862.776 1321.44 C 861.674 1319.86 859.039 1316.77 858.52 1315.02 C 858.085 1313.55 858.682 1310.16 858.799 1308.54 C 859.162 1303.58 859.434 1299.05 858.701 1294.1 L 858.513 1292.94 C 859.673 1280.31 864.374 1267.99 872.487 1258.22 L 882.119 1241.32 C 886.287 1236.58 887.017 1223.08 887.907 1217 C 892.363 1186.56 895.091 1156.47 895.33 1125.71 C 893.925 1106.13 889.732 1086.62 889.451 1067 C 889.261 1053.81 891.424 1040.85 893.61 1027.88 z"/>
<path transform="translate(0,0)" fill="rgb(71,11,6)" d="M 1139.48 1012.85 C 1137.74 1013.95 1136.36 1014.64 1134.31 1014.86 C 1130.24 1015.31 1127.8 1014.09 1124.77 1011.5 C 1123.58 1008.31 1123.56 1007.84 1124.21 1004.5 C 1127.92 1000.98 1128.05 1000.5 1133.08 1000.12 C 1134.49 1005.44 1135.93 1008.7 1139.48 1012.85 z"/>
<path transform="translate(0,0)" fill="rgb(71,11,6)" d="M 1206.59 1019.5 L 1209.79 1019.28 C 1210.7 1019.97 1211.6 1020.69 1212.35 1021.56 C 1215.8 1025.62 1216.35 1031.93 1215.86 1036.96 L 1213.5 1038.08 C 1212.18 1037.62 1210.79 1037.19 1209.6 1036.41 C 1206.85 1034.61 1204.72 1030.7 1204.27 1027.5 C 1203.83 1024.42 1204.78 1021.94 1206.59 1019.5 z"/>
<path transform="translate(0,0)" fill="rgb(255,255,255)" d="M 1133.08 1000.12 C 1133.94 996.285 1134.48 994.159 1137.28 991.33 C 1139.98 990.359 1141.68 989.779 1144.5 990.838 C 1148.08 992.187 1150.94 996.233 1152.07 999.753 C 1152.82 1002.11 1152.41 1003.64 1151.75 1005.95 C 1148.31 1010.35 1144.85 1011.69 1139.48 1012.85 C 1135.93 1008.7 1134.49 1005.44 1133.08 1000.12 z"/>
<path transform="translate(0,0)" fill="rgb(156,19,3)" d="M 1338.13 1120.16 C 1338.88 1118.69 1339.59 1117.38 1340.51 1116 L 1340.76 1108.5 L 1342 1107.51 C 1345.68 1111.58 1346.33 1117.24 1346.16 1122.47 L 1344.81 1124.11 L 1343.42 1124.55 L 1343.51 1126.55 C 1343.69 1135.83 1334.76 1138.81 1333.19 1146.29 C 1332.53 1149.44 1333.76 1155.53 1333.89 1158.97 L 1332.59 1159.76 C 1329.21 1161.71 1326.74 1162.33 1322.96 1161.26 C 1319.42 1158.41 1315.86 1155.28 1314.92 1150.59 C 1312.95 1140.73 1320.93 1128.61 1326.38 1120.91 C 1330.41 1120.96 1334.16 1120.84 1338.13 1120.16 z"/>
<path transform="translate(0,0)" fill="rgb(156,19,3)" d="M 1138.28 1143.21 L 1146.98 1143.02 C 1152.96 1143.21 1155.56 1144.03 1159.71 1148.5 C 1161.04 1152.88 1162.08 1158.88 1160.01 1163.2 C 1156.71 1170.08 1149.74 1172.61 1142.93 1174.59 C 1138.11 1174.93 1132.62 1175.12 1128.08 1173.22 C 1124.96 1171.92 1122.36 1169.61 1121.08 1166.45 C 1119.65 1162.94 1120.08 1159.08 1121.68 1155.69 C 1124.83 1149.02 1131.72 1145.54 1138.28 1143.21 z"/>
<path transform="translate(0,0)" fill="rgb(156,19,3)" d="M 893.61 1027.88 C 896.02 1020.56 906.502 1014.67 911.542 1008.61 C 918.449 1000.3 922.107 985.924 931 980.155 C 935.336 979.93 938.145 980.582 941.351 983.669 C 943.769 985.998 945.972 989.152 945.998 992.635 C 946.039 998.052 943.209 1004.15 941.164 1009.12 L 928.708 1037.5 C 922.577 1050.83 916.557 1064.14 912.083 1078.15 C 907.135 1093.64 903.907 1111.56 896.459 1125.93 L 895.33 1125.71 C 893.925 1106.13 889.732 1086.62 889.451 1067 C 889.261 1053.81 891.424 1040.85 893.61 1027.88 z"/>
<path transform="translate(0,0)" fill="rgb(156,19,3)" d="M 1111.16 1344.21 C 1112.46 1337.54 1117.3 1332.9 1120.77 1327.27 C 1126.34 1318.25 1131.32 1308.41 1133.4 1297.94 C 1140.18 1263.64 1119.11 1217.09 1100.39 1189.13 C 1107.55 1194.55 1114.84 1200.27 1123.05 1204.05 C 1149.26 1216.11 1178.09 1221.54 1205.54 1229.93 C 1222.98 1235.26 1239.63 1242.81 1257.65 1246.07 C 1265.83 1247.55 1274.88 1247.5 1283.1 1246.35 L 1285 1246.07 C 1293.08 1244.95 1300.34 1243.12 1307.41 1238.97 L 1309 1238.02 C 1314.89 1234.57 1320.23 1228.79 1324.37 1223.4 C 1326.76 1220.3 1328.76 1216.36 1332 1214.1 L 1335.86 1216 L 1333.32 1225.3 C 1327.02 1241.6 1316.89 1259.24 1300.12 1266.61 C 1282.95 1274.14 1264.79 1268.02 1247.81 1262.96 C 1225.47 1256.31 1202.82 1246.25 1179.78 1242.85 C 1180.64 1257.68 1181.12 1286.96 1191.56 1298.6 L 1192.82 1299.67 C 1191.9 1305.82 1191.15 1307.88 1186 1311.74 C 1164.86 1327.57 1136.56 1337.65 1111.16 1344.21 z"/>
<path transform="translate(0,0)" fill="rgb(255,201,104)" d="M 872.487 1258.22 C 870.365 1267.46 868.337 1273.08 873.604 1281.65 C 878.269 1289.24 885.247 1295.48 891.91 1301.26 C 919.438 1325.15 951.277 1338.35 986.536 1345.91 C 1018.34 1352.73 1051.87 1353.4 1084.16 1349.59 C 1093.02 1348.54 1102.87 1347.7 1111.16 1344.21 C 1136.56 1337.65 1164.86 1327.57 1186 1311.74 C 1191.15 1307.88 1191.9 1305.82 1192.82 1299.67 C 1199.79 1304.98 1203.32 1326.87 1204.76 1335.73 C 1191.19 1343.48 1177.53 1351.99 1163.11 1358.01 L 1104.06 1379.69 C 1101.74 1380.67 1095.76 1382.62 1094.11 1384.32 C 1087.9 1386.75 1079.84 1388.98 1076.26 1395.02 C 1057.17 1397.57 1035.79 1395.36 1016.65 1393.83 L 978.744 1387.32 C 947.296 1378 915.159 1367.34 888.586 1347.47 C 879.176 1340.44 869.501 1331.08 862.776 1321.44 C 861.674 1319.86 859.039 1316.77 858.52 1315.02 C 858.085 1313.55 858.682 1310.16 858.799 1308.54 C 859.162 1303.58 859.434 1299.05 858.701 1294.1 L 858.513 1292.94 C 859.673 1280.31 864.374 1267.99 872.487 1258.22 z"/>
<path transform="translate(0,0)" fill="rgb(154,203,245)" d="M 1333.32 1225.3 C 1333.88 1225.96 1334.26 1226.82 1335 1227.27 C 1335.99 1227.88 1340.73 1227.9 1342.26 1228.12 L 1371.5 1232.15 L 1374.81 1232.3 L 1380.64 1260.51 C 1367.65 1271.89 1356.26 1284.78 1344.84 1297.7 C 1317.78 1328.34 1292.42 1362.75 1271.83 1398.11 L 1254.96 1430.68 C 1247.5 1425.81 1239.99 1422.17 1233 1416.33 C 1209.47 1396.7 1207.47 1364.25 1204.76 1335.73 C 1203.32 1326.87 1199.79 1304.98 1192.82 1299.67 L 1191.56 1298.6 C 1181.12 1286.96 1180.64 1257.68 1179.78 1242.85 C 1202.82 1246.25 1225.47 1256.31 1247.81 1262.96 C 1264.79 1268.02 1282.95 1274.14 1300.12 1266.61 C 1316.89 1259.24 1327.02 1241.6 1333.32 1225.3 z"/>
<path transform="translate(0,0)" fill="rgb(91,98,131)" d="M 1383.89 396.539 C 1381.46 394.061 1379.72 392.892 1378.82 389.5 C 1382.55 385.914 1392.67 385.101 1397.76 384.003 C 1413.82 380.539 1430.57 374.966 1447.11 375.386 C 1462.72 375.783 1476.35 381.341 1491.43 383.743 C 1496.43 372.885 1500.94 362.731 1513 358.142 C 1518.86 355.911 1525.87 356.74 1531.5 359.28 C 1539.74 362.996 1544.85 372.098 1547.52 380.358 C 1549.99 387.982 1552.15 396.257 1551.73 404.339 L 1551.59 405.588 C 1550.63 412.73 1547.02 418.235 1543.92 424.606 C 1560.23 412.164 1575.52 406.839 1596.13 409.642 C 1626.02 413.708 1650.16 432.951 1668.05 456.245 C 1680.08 475.354 1688.38 493.894 1694.53 515.63 C 1697.24 525.198 1699.94 534.546 1699.9 544.561 L 1701.46 547.509 L 1700.5 549.338 C 1695.91 550.088 1688.91 549.206 1684.98 551 L 1684.45 553.978 C 1687.72 586.041 1676.64 614.027 1668.61 644.429 C 1661.86 669.967 1655.5 696.931 1653.54 723.293 C 1651.72 741.198 1652.12 758.011 1648.11 775.717 C 1648.94 806.806 1657.82 835.394 1663.17 865.716 C 1656.44 865.83 1651.41 869.217 1645.77 872.479 L 1619.33 888.938 L 1558.82 930.25 C 1515.47 962.948 1474.09 999.001 1428.73 1028.87 C 1423.28 1014.7 1416.15 1002.68 1409.27 989.269 L 1404.29 982.488 C 1396.19 972.327 1383.7 970.249 1371.58 969.008 C 1340.99 969.24 1311.46 979.715 1280.85 977.533 C 1270.65 976.805 1260.17 972.423 1253.51 964.434 C 1243.31 952.212 1243.59 934.463 1247.39 919.857 C 1249.54 911.575 1252.84 903.099 1253.46 894.523 C 1253.95 887.82 1253.13 881.558 1248.68 876.343 L 1248.06 875.64 C 1250.11 869.519 1258.73 861.872 1258.9 856.256 L 1248.49 855.199 C 1244.75 855.312 1241.26 854.162 1238.02 852.412 L 1246.7 846.934 C 1239.1 844.071 1230.9 847.813 1223.33 842.157 C 1216.05 836.712 1217.52 823.321 1216.67 815.215 C 1214.07 790.518 1172.35 799.34 1156.91 785.855 C 1151.7 781.306 1148.29 774.789 1147.97 767.874 C 1147.55 759.015 1152.16 754.045 1157.75 747.892 C 1170.12 737.657 1183.1 727.141 1193.32 714.701 C 1200.6 705.836 1207.93 693.924 1209.65 682.429 C 1211.35 671.09 1209.72 658.466 1208.55 647.082 L 1204.5 625.864 L 1202.59 617.09 C 1201.18 612.137 1199.5 610.208 1195.09 607.722 L 1181.43 602.993 C 1174.64 599.501 1167.38 595.699 1161.56 590.741 C 1147.51 578.77 1140.39 566.085 1138.83 547.582 C 1142.12 542.039 1147.42 535.287 1152.96 531.91 L 1152.21 528.844 C 1155.04 520.209 1158.22 511.327 1162.35 503.236 C 1159.23 497.375 1156.88 490.65 1156.29 484 C 1155.76 478.027 1155.04 468.703 1159 463.929 C 1167 464.753 1174.86 467.988 1183 469.177 L 1191 470.008 C 1200.45 470.371 1221.03 470.658 1228.5 463.734 C 1228.75 462.407 1228.85 461.319 1228.54 459.987 C 1226.44 451.006 1224.51 441.839 1225.45 432.531 C 1225.89 428.094 1227.23 423.446 1230.93 420.611 C 1242.26 411.934 1289.5 425.75 1305.33 427.695 C 1319.76 429.469 1340.39 428.939 1352.76 420.36 C 1356.84 417.531 1359.72 413.495 1363.62 410.524 L 1364.7 409.716 C 1365.8 408.894 1365.38 409.314 1366.24 408.229 L 1375.32 398.335 C 1377.63 398.078 1379.73 397.78 1381.96 397.123 L 1383.89 396.539 z"/>
<path transform="translate(0,0)" fill="rgb(61,64,91)" d="M 1220.14 668.5 C 1222.74 668.277 1224.48 668.629 1226.64 670.202 C 1229.73 672.453 1232.56 677.708 1232.88 681.5 C 1233.24 685.774 1232.91 687.204 1230.29 690.5 L 1228.65 691.57 C 1227.13 692.149 1225.14 692.312 1223.88 691.248 C 1220.27 688.225 1219.24 681.515 1218.64 677 C 1218.1 672.913 1217.6 671.755 1220.14 668.5 z"/>
<path transform="translate(0,0)" fill="rgb(61,64,91)" d="M 1277.42 825.019 L 1281.2 814.091 L 1282.97 813.5 C 1285.49 816.244 1285.71 816.322 1286.07 820 L 1279.39 827.725 L 1260.41 855.043 L 1248.49 855.199 C 1244.75 855.312 1241.26 854.162 1238.02 852.412 L 1246.7 846.934 C 1257.38 839.296 1268.02 834.762 1277.42 825.019 z"/>
<path transform="translate(0,0)" fill="rgb(61,64,91)" d="M 1204.5 625.864 C 1209.34 623.181 1220.32 623.184 1225.82 624.415 C 1228.35 624.98 1229.79 626.949 1231.31 628.837 C 1232.11 631.616 1232.28 633.053 1231.77 635.995 C 1227.54 640.171 1214.51 646.972 1208.55 647.082 L 1204.5 625.864 z"/>
<path transform="translate(0,0)" fill="rgb(61,64,91)" d="M 1371.58 969.008 L 1367.61 967.5 C 1371.65 964.351 1378.19 963.204 1383.01 961.383 C 1391.21 958.287 1399.41 954.794 1407.19 950.765 C 1435.54 936.083 1452.67 913.967 1475.15 892.357 C 1471.32 922.113 1450.1 941.826 1430.53 962.7 C 1423.94 969.731 1416.88 976.917 1412.27 985.44 C 1411.45 986.961 1410.46 988.028 1409.27 989.269 L 1404.29 982.488 C 1396.19 972.327 1383.7 970.249 1371.58 969.008 z"/>
<path transform="translate(0,0)" fill="rgb(61,64,91)" d="M 1383.89 396.539 C 1381.46 394.061 1379.72 392.892 1378.82 389.5 C 1382.55 385.914 1392.67 385.101 1397.76 384.003 C 1413.82 380.539 1430.57 374.966 1447.11 375.386 C 1462.72 375.783 1476.35 381.341 1491.43 383.743 C 1496.43 372.885 1500.94 362.731 1513 358.142 C 1518.86 355.911 1525.87 356.74 1531.5 359.28 C 1539.74 362.996 1544.85 372.098 1547.52 380.358 C 1549.99 387.982 1552.15 396.257 1551.73 404.339 L 1551.59 405.588 C 1550.63 412.73 1547.02 418.235 1543.92 424.606 C 1560.23 412.164 1575.52 406.839 1596.13 409.642 C 1626.02 413.708 1650.16 432.951 1668.05 456.245 C 1680.08 475.354 1688.38 493.894 1694.53 515.63 C 1697.24 525.198 1699.94 534.546 1699.9 544.561 L 1701.46 547.509 L 1700.5 549.338 C 1695.91 550.088 1688.91 549.206 1684.98 551 L 1684.45 553.978 C 1687.72 586.041 1676.64 614.027 1668.61 644.429 C 1661.86 669.967 1655.5 696.931 1653.54 723.293 C 1651.72 741.198 1652.12 758.011 1648.11 775.717 C 1642.57 782.286 1636.84 788.725 1629.4 793.194 C 1614.97 801.868 1595 802.727 1578.89 798.621 C 1565.48 795.201 1554.29 790.14 1542.59 782.671 C 1519.87 768.168 1502.93 743.831 1487.99 721.781 C 1486.73 719.924 1482.28 714.738 1482.01 712.93 C 1481.61 710.146 1486.51 701.549 1487.85 698.807 C 1495.84 682.436 1504.07 662.988 1499.25 644.399 C 1496.85 635.166 1489.42 626.197 1481.02 621.812 C 1472.99 617.626 1462.66 616.719 1454.06 619.458 L 1452.5 619.984 L 1449.74 620.903 C 1433.67 626.997 1426.45 641.612 1419.47 656.114 C 1418.66 647.015 1419.47 637.281 1419.8 628.126 C 1420.3 614.092 1420.68 599.526 1422.71 585.636 L 1422.96 584 L 1424.39 576.305 C 1425.73 572.45 1427.34 571.683 1430.72 570.001 L 1436.96 568.5 C 1437.13 566.397 1437.55 566.434 1436.13 564.66 C 1433.47 561.35 1429.29 558.904 1425.92 556.312 C 1416.07 548.739 1406.67 539.954 1393.68 538.867 C 1377.38 537.502 1365.91 543.005 1350.95 548.208 C 1321.09 558.6 1291.07 560.79 1262.98 543.899 C 1255.13 539.177 1248.59 533.002 1242.05 526.642 C 1232.06 534.757 1223.31 544.906 1212.5 551.914 C 1204.46 557.123 1194.73 560.264 1186.11 564.477 C 1186.02 575.827 1186.54 584.838 1190.49 595.594 C 1191.93 599.509 1194.83 603.561 1195.09 607.722 L 1181.43 602.993 C 1174.64 599.501 1167.38 595.699 1161.56 590.741 C 1147.51 578.77 1140.39 566.085 1138.83 547.582 C 1142.12 542.039 1147.42 535.287 1152.96 531.91 L 1152.21 528.844 C 1155.04 520.209 1158.22 511.327 1162.35 503.236 C 1159.23 497.375 1156.88 490.65 1156.29 484 C 1155.76 478.027 1155.04 468.703 1159 463.929 C 1167 464.753 1174.86 467.988 1183 469.177 L 1191 470.008 C 1200.45 470.371 1221.03 470.658 1228.5 463.734 C 1228.75 462.407 1228.85 461.319 1228.54 459.987 C 1226.44 451.006 1224.51 441.839 1225.45 432.531 C 1225.89 428.094 1227.23 423.446 1230.93 420.611 C 1242.26 411.934 1289.5 425.75 1305.33 427.695 C 1319.76 429.469 1340.39 428.939 1352.76 420.36 C 1356.84 417.531 1359.72 413.495 1363.62 410.524 L 1364.7 409.716 C 1365.8 408.894 1365.38 409.314 1366.24 408.229 L 1375.32 398.335 C 1377.63 398.078 1379.73 397.78 1381.96 397.123 L 1383.89 396.539 z"/>
<path transform="translate(0,0)" fill="rgb(255,223,146)" d="M 1162.35 503.236 C 1171.49 511.006 1180.67 515.44 1192.05 519.17 C 1183.66 527.862 1172.64 531.734 1160.65 532.015 L 1152.96 531.91 L 1152.21 528.844 C 1155.04 520.209 1158.22 511.327 1162.35 503.236 z"/>
<path transform="translate(0,0)" fill="rgb(255,182,91)" d="M 1383.89 396.539 L 1385.48 397.185 C 1400.84 403.34 1415.87 402.458 1431.98 401.349 C 1416.61 411.137 1397.6 420.686 1378.84 416.984 C 1373.41 415.913 1368.91 413.203 1364.7 409.716 C 1365.8 408.894 1365.38 409.314 1366.24 408.229 L 1375.32 398.335 C 1377.63 398.078 1379.73 397.78 1381.96 397.123 L 1383.89 396.539 z"/>
<path transform="translate(0,0)" fill="rgb(255,223,146)" d="M 1682.96 546.31 C 1676.93 536.187 1673.9 522.468 1669.15 511.488 C 1665.21 502.366 1659.67 494.715 1655.14 486 C 1653.59 483.004 1652.47 479.722 1651.4 476.526 C 1672.13 487.793 1683.14 511.977 1692.97 532.358 C 1694.54 535.607 1696.45 541.697 1699.14 544.048 L 1699.9 544.561 L 1701.46 547.509 L 1700.5 549.338 C 1695.91 550.088 1688.91 549.206 1684.98 551 L 1684.45 553.978 L 1682.96 546.31 z"/>
<path transform="translate(0,0)" fill="rgb(255,255,255)" d="M 973.898 2048 L -0 2048 L -0 -0 L 982.315 0 L 1040.82 0 L 1042.96 150.162 C 1037.42 149.936 1031.79 149.254 1026.42 150.901 C 996.977 155.462 972.469 168.981 954.71 193.492 C 939.116 215.014 934.034 240.054 938.319 266.236 C 942.639 292.631 956.338 316.771 978.289 332.346 C 993.132 342.876 1009.44 348.831 1027.42 351.123 L 1028.26 351.337 C 1032.24 352.29 1036.07 352.36 1040.12 352.431 L 1041.08 501.855 C 1029.78 498.299 1017.63 496.346 1006 494.03 L 912.444 478.955 C 903.177 479.867 893.713 478.99 884.396 479.05 C 869.51 479.146 855.004 480.705 840.2 481.905 C 833.917 482.414 827.686 482.048 821.5 483.177 C 819.358 483.568 817.283 483.343 815.185 484.039 L 837.51 549.83 C 841.754 570.9 844.978 592.503 842.246 614 C 840.155 630.459 835.793 653.194 824.442 665.833 C 822.105 668.136 820.409 670.5 820.202 673.925 C 815.508 690.59 808.297 706.512 803.181 723.082 C 801.233 729.389 798.543 737.219 798.915 743.89 C 799.184 748.714 801.551 753.994 803.949 758.175 C 811.552 771.429 826.174 777.759 837.258 787.533 C 832.276 802.397 820.777 816.707 807.71 825.265 C 799.977 830.331 791.549 834.831 785.129 841.614 C 776.734 850.483 772.404 862.87 765.894 873.088 C 763.659 875.199 761.57 877.435 758.953 879.063 C 757.453 881.984 756.42 883.39 757.347 886.812 L 759.067 890.879 L 746.804 889.85 C 745.164 907.874 742.797 927.547 727.5 939.751 C 717.24 947.935 705.746 949.57 693.159 947.675 C 682.36 946.05 671.873 942.502 661.818 938.327 C 654.758 935.395 644.145 928.904 636.602 928.271 C 634.275 928.076 632.102 929.232 630.032 930.128 C 621.638 940.318 617.632 953.504 613.891 966 C 605.898 992.698 599.762 1022.74 602.56 1050.71 C 604.221 1067.31 608.409 1082.96 613.133 1098.91 C 605.397 1110.66 595.636 1118.87 586.361 1129.23 L 616.747 1176.65 C 623.855 1179.75 627.947 1188.1 634.5 1192.6 L 635.625 1193.56 C 638.985 1196.15 647.042 1197.5 651.318 1198.46 L 652.811 1196 C 656.432 1203.17 660.205 1210.25 662.333 1218.05 L 707.575 1219.71 L 729.087 1221.25 C 730.878 1221.4 735.245 1222.22 736.865 1221.69 C 737.262 1221.56 737.51 1221.16 737.833 1220.89 C 743.076 1222.76 748.997 1221.95 754.5 1222.35 C 760.284 1222.76 766.145 1223.85 771.916 1224.52 L 838 1233.66 C 852.58 1235.85 867.907 1237.35 882.119 1241.32 L 872.487 1258.22 C 864.374 1267.99 859.673 1280.31 858.513 1292.94 L 858.701 1294.1 C 859.434 1299.05 859.162 1303.58 858.799 1308.54 C 858.682 1310.16 858.085 1313.55 858.52 1315.02 C 859.039 1316.77 861.674 1319.86 862.776 1321.44 C 869.501 1331.08 879.176 1340.44 888.586 1347.47 C 915.159 1367.34 947.296 1378 978.744 1387.32 L 1016.65 1393.83 C 1035.79 1395.36 1057.17 1397.57 1076.26 1395.02 C 1079.84 1388.98 1087.9 1386.75 1094.11 1384.32 C 1100.5 1385.81 1106.09 1388.03 1112.06 1390.73 C 1123.02 1396.83 1127.79 1405.94 1133.48 1416.61 C 1142.23 1423.08 1150.17 1430.03 1157.18 1438.37 C 1168.17 1451.43 1176.83 1465.49 1186.39 1479.52 L 1213.1 1516.13 C 1219.94 1525.27 1228.17 1539.19 1238.66 1544.3 C 1245.55 1547.64 1254.5 1548.18 1262.04 1549.42 L 1285.95 1554.31 C 1277.42 1556.15 1270.52 1566.96 1265.97 1574 C 1245.12 1606.22 1237.64 1645.02 1227.92 1681.54 C 1223.26 1699.02 1217.34 1716.95 1215.49 1734.96 L 1208.62 1731.09 C 1197.08 1765.42 1185.62 1800.45 1184.84 1837.02 C 1184.64 1846.59 1184.48 1856.45 1186.42 1865.86 C 1192.09 1893.48 1205.46 1920.38 1216.92 1946 C 1227.91 1970.56 1237.04 1996.1 1249.05 2020.2 L 1252.12 2026.15 L 1171.74 2038.6 L 1146.08 2041.6 L 1067.22 2046.06 L 1060.1 2048 L 973.898 2048 z"/>
<path transform="translate(0,0)" fill="rgb(211,64,23)" d="M 982.315 0 L 1040.82 0 L 1042.96 150.162 C 1037.42 149.936 1031.79 149.254 1026.42 150.901 C 996.977 155.462 972.469 168.981 954.71 193.492 C 939.116 215.014 934.034 240.054 938.319 266.236 C 942.639 292.631 956.338 316.771 978.289 332.346 C 993.132 342.876 1009.44 348.831 1027.42 351.123 L 1028.26 351.337 C 1032.24 352.29 1036.07 352.36 1040.12 352.431 L 1041.08 501.855 C 1029.78 498.299 1017.63 496.346 1006 494.03 L 912.444 478.955 C 905.743 476.528 899.014 471.96 892.617 468.681 C 862.223 453.099 835.751 432.997 809.934 410.8 C 780.135 385.18 751.868 357.823 717.902 337.566 C 613.827 275.495 481.657 285.335 368.738 313.704 C 362.824 302.483 357.054 293.006 348.494 283.607 C 343.667 278.564 338.089 275.035 332.277 271.247 C 364.143 240.446 397.862 210.579 434.079 184.962 C 511.404 130.269 597.629 90.4987 687 59.9849 C 738.828 42.2893 792.041 27.3033 845.926 17.21 L 927.714 5.53492 C 945.836 3.74583 964.42 3.30311 982.315 0 z"/>
<path transform="translate(0,0)" fill="rgb(255,182,91)" d="M 255.844 350.52 C 271.022 330.428 290.32 312.012 308.158 294.262 C 315.83 286.628 323.595 277.667 332.277 271.247 C 338.089 275.035 343.667 278.564 348.494 283.607 C 357.054 293.006 362.824 302.483 368.738 313.704 C 481.657 285.335 613.827 275.495 717.902 337.566 C 751.868 357.823 780.135 385.18 809.934 410.8 C 835.751 432.997 862.223 453.099 892.617 468.681 C 899.014 471.96 905.743 476.528 912.444 478.955 C 903.177 479.867 893.713 478.99 884.396 479.05 C 869.51 479.146 855.004 480.705 840.2 481.905 C 833.917 482.414 827.686 482.048 821.5 483.177 C 819.358 483.568 817.283 483.343 815.185 484.039 C 809.38 473.242 803.724 462.155 795.5 452.948 C 782.63 438.541 764.259 432.278 746.281 426.84 C 662.657 401.545 574.158 393.593 494.463 436.259 C 409.931 481.515 389.101 590.268 348.288 668.621 C 314.435 733.612 272.322 794.646 227.451 852.428 C 204.623 881.826 181.539 912.367 151.624 935.078 C 140.249 943.714 127.001 951.027 112.829 953.61 C 107.328 954.613 94.0804 952.713 90.2222 955.122 C 68.191 944.676 43.0421 933.364 28.9351 912.663 C 24.0015 905.423 20.7758 897.409 16.0597 890.114 L 15.4842 889.237 C 18.6229 851.222 26.7141 813.988 35.3487 776.921 C 44.011 739.736 53.9021 702.387 66.4328 666.307 C 80.6581 625.347 98.4246 586.32 118.194 547.782 C 132.826 519.258 147.782 490.766 165.138 463.781 C 191.024 423.534 222.636 384.919 255.844 350.52 z"/>
<path transform="translate(0,0)" fill="rgb(255,201,104)" d="M 255.844 350.52 C 271.022 330.428 290.32 312.012 308.158 294.262 C 315.83 286.628 323.595 277.667 332.277 271.247 C 338.089 275.035 343.667 278.564 348.494 283.607 C 347.172 289.343 345.502 294.666 346.952 300.5 L 347.288 301.889 L 352.205 316.486 L 351.269 316.637 C 331.096 320.092 310.075 327.735 291.123 335.416 L 272.793 343.678 C 267.136 346.555 262.32 349.919 255.844 350.52 z"/>
<path transform="translate(0,0)" fill="rgb(211,64,23)" d="M 90.2222 955.122 C 94.0804 952.713 107.328 954.613 112.829 953.61 C 127.001 951.027 140.249 943.714 151.624 935.078 C 181.539 912.367 204.623 881.826 227.451 852.428 C 272.322 794.646 314.435 733.612 348.288 668.621 C 389.101 590.268 409.931 481.515 494.463 436.259 C 574.158 393.593 662.657 401.545 746.281 426.84 C 764.259 432.278 782.63 438.541 795.5 452.948 C 803.724 462.155 809.38 473.242 815.185 484.039 L 837.51 549.83 C 841.754 570.9 844.978 592.503 842.246 614 C 840.155 630.459 835.793 653.194 824.442 665.833 C 822.105 668.136 820.409 670.5 820.202 673.925 C 815.508 690.59 808.297 706.512 803.181 723.082 C 801.233 729.389 798.543 737.219 798.915 743.89 C 799.184 748.714 801.551 753.994 803.949 758.175 C 811.552 771.429 826.174 777.759 837.258 787.533 C 832.276 802.397 820.777 816.707 807.71 825.265 C 799.977 830.331 791.549 834.831 785.129 841.614 C 776.734 850.483 772.404 862.87 765.894 873.088 C 763.659 875.199 761.57 877.435 758.953 879.063 C 757.453 881.984 756.42 883.39 757.347 886.812 L 759.067 890.879 L 746.804 889.85 C 745.164 907.874 742.797 927.547 727.5 939.751 C 717.24 947.935 705.746 949.57 693.159 947.675 C 682.36 946.05 671.873 942.502 661.818 938.327 C 654.758 935.395 644.145 928.904 636.602 928.271 C 634.275 928.076 632.102 929.232 630.032 930.128 C 621.638 940.318 617.632 953.504 613.891 966 C 605.898 992.698 599.762 1022.74 602.56 1050.71 C 604.221 1067.31 608.409 1082.96 613.133 1098.91 C 605.397 1110.66 595.636 1118.87 586.361 1129.23 C 558.914 1094.69 526.707 1067.38 490.332 1042.66 C 461.828 1023.28 429.743 1004.59 395.211 999.476 C 392.607 1000.14 382.45 1002.09 381.157 1004.23 C 373.652 1003.82 365.434 1007.66 358.299 1009.83 C 348.716 1012.74 338.849 1015.43 328.969 1017.11 C 304.302 1021.31 279.669 1021.37 254.726 1020.87 L 238.754 1104.55 C 230.107 1145.32 221.63 1186.77 201.047 1223.5 C 190.951 1241.52 178.401 1258.35 167.198 1275.7 C 155.558 1293.74 145.054 1313.05 137.137 1333 C 133.135 1343.08 129.745 1353.85 127.756 1364.51 C 123.215 1388.86 121.84 1414.43 110.576 1436.98 C 106.254 1445.64 99.3426 1452.96 94.1193 1461.09 C 62.605 1390.81 38.9238 1316.05 27.3821 1239.85 C 29.501 1237.2 32.7724 1236.57 35.8421 1235.49 L 57.4859 1227.86 C 63.5147 1225.62 69.2675 1222.99 74.7172 1219.56 C 109.099 1197.9 122.498 1161.81 133.061 1124.48 C 140.655 1097.65 146.827 1070.45 151.767 1043.01 C 154.685 1026.79 156.452 1010.34 160.148 994.294 L 90.2222 955.122 z"/>
<path transform="translate(0,0)" fill="rgb(255,207,183)" d="M 540.703 821.871 C 548.692 826.667 554.442 840.45 559.07 848.324 C 563.229 855.401 567.873 862.408 572.935 868.881 C 590.035 890.743 609.897 911.045 630.032 930.128 C 621.638 940.318 617.632 953.504 613.891 966 C 605.898 992.698 599.762 1022.74 602.56 1050.71 C 604.221 1067.31 608.409 1082.96 613.133 1098.91 C 605.397 1110.66 595.636 1118.87 586.361 1129.23 C 558.914 1094.69 526.707 1067.38 490.332 1042.66 C 461.828 1023.28 429.743 1004.59 395.211 999.476 L 399.382 996.993 C 428.19 980.846 458.178 959.703 480.419 935.173 C 509.745 902.83 528.735 863.456 540.703 821.871 z"/>
<path transform="translate(0,0)" fill="rgb(253,186,163)" d="M 729.203 650.307 C 766.851 629.177 798.777 605.958 819.384 567.094 C 824.594 588.671 828.872 614.702 827.791 637.03 C 827.329 646.575 824.413 656.444 824.442 665.833 C 822.105 668.136 820.409 670.5 820.202 673.925 C 815.508 690.59 808.297 706.512 803.181 723.082 C 801.233 729.389 798.543 737.219 798.915 743.89 C 799.184 748.714 801.551 753.994 803.949 758.175 C 811.552 771.429 826.174 777.759 837.258 787.533 C 832.276 802.397 820.777 816.707 807.71 825.265 C 799.977 830.331 791.549 834.831 785.129 841.614 C 776.734 850.483 772.404 862.87 765.894 873.088 C 763.659 875.199 761.57 877.435 758.953 879.063 C 757.453 881.984 756.42 883.39 757.347 886.812 L 759.067 890.879 L 746.804 889.85 C 745.164 907.874 742.797 927.547 727.5 939.751 C 717.24 947.935 705.746 949.57 693.159 947.675 C 682.36 946.05 671.873 942.502 661.818 938.327 C 654.758 935.395 644.145 928.904 636.602 928.271 C 634.275 928.076 632.102 929.232 630.032 930.128 C 609.897 911.045 590.035 890.743 572.935 868.881 C 567.873 862.408 563.229 855.401 559.07 848.324 C 554.442 840.45 548.692 826.667 540.703 821.871 C 544.167 804.01 546.89 786.272 548.419 768.129 C 548.445 767.813 548.685 767.437 548.498 767.181 C 547.379 765.655 541.452 762.903 539.606 761.695 C 524.472 751.789 512.806 739.408 505.049 722.999 C 496.659 705.251 493.996 683.663 501.063 665 C 505.073 654.412 512.672 644.513 523.309 640.009 C 531.398 636.584 542.464 636.438 550.5 640.036 C 562.194 645.272 568.211 655.194 572.446 666.746 L 572.843 667.853 C 577.153 667.752 581.561 666.536 585.912 666.177 L 623.201 663.489 C 656.066 661.195 690.896 661.32 723.101 654.262 C 744.282 652.727 765.126 644.58 784.891 656.659 L 786.255 657.5 L 787.88 656.5 L 788.043 651.5 C 785.345 647.977 782.709 646.723 778.361 645.823 C 762.267 642.492 744.952 647.352 729.203 650.307 z"/>
<path transform="translate(0,0)" fill="rgb(71,11,6)" d="M 763.66 722.5 L 765.29 722.474 C 768.455 725.008 769.732 728.175 770.135 732.292 C 770.803 739.128 768.211 742.613 763.861 747.5 L 762.398 748.653 L 760.772 748.155 C 759.888 745.945 759.216 743.737 759.046 741.347 C 758.541 734.253 758.914 728.151 763.66 722.5 z"/>
<path transform="translate(0,0)" fill="rgb(117,109,124)" d="M 744.949 878.426 C 734.424 874.651 722.836 866.29 716.649 856.952 C 726.678 863.784 738.725 871.201 751 872.959 C 755.811 873.649 761.04 873.245 765.894 873.088 C 763.659 875.199 761.57 877.435 758.953 879.063 C 757.453 881.984 756.42 883.39 757.347 886.812 L 759.067 890.879 L 746.804 889.85 C 745.838 886.096 746.152 882.296 744.949 878.426 z"/>
<path transform="translate(0,0)" fill="rgb(253,121,58)" d="M 744.949 878.426 C 749.112 878.212 755.194 877.198 758.953 879.063 C 757.453 881.984 756.42 883.39 757.347 886.812 L 759.067 890.879 L 746.804 889.85 C 745.838 886.096 746.152 882.296 744.949 878.426 z"/>
<path transform="translate(0,0)" fill="rgb(61,64,91)" d="M 395.211 999.476 C 429.743 1004.59 461.828 1023.28 490.332 1042.66 C 526.707 1067.38 558.914 1094.69 586.361 1129.23 L 616.747 1176.65 C 623.855 1179.75 627.947 1188.1 634.5 1192.6 L 635.625 1193.56 C 638.985 1196.15 647.042 1197.5 651.318 1198.46 L 652.811 1196 C 656.432 1203.17 660.205 1210.25 662.333 1218.05 L 707.575 1219.71 L 729.087 1221.25 C 730.878 1221.4 735.245 1222.22 736.865 1221.69 C 737.262 1221.56 737.51 1221.16 737.833 1220.89 C 743.076 1222.76 748.997 1221.95 754.5 1222.35 C 760.284 1222.76 766.145 1223.85 771.916 1224.52 L 838 1233.66 C 852.58 1235.85 867.907 1237.35 882.119 1241.32 L 872.487 1258.22 C 864.374 1267.99 859.673 1280.31 858.513 1292.94 L 858.701 1294.1 C 859.434 1299.05 859.162 1303.58 858.799 1308.54 C 858.682 1310.16 858.085 1313.55 858.52 1315.02 C 859.039 1316.77 861.674 1319.86 862.776 1321.44 C 869.501 1331.08 879.176 1340.44 888.586 1347.47 C 915.159 1367.34 947.296 1378 978.744 1387.32 L 1016.65 1393.83 C 1035.79 1395.36 1057.17 1397.57 1076.26 1395.02 C 1079.84 1388.98 1087.9 1386.75 1094.11 1384.32 C 1100.5 1385.81 1106.09 1388.03 1112.06 1390.73 C 1123.02 1396.83 1127.79 1405.94 1133.48 1416.61 C 1142.23 1423.08 1150.17 1430.03 1157.18 1438.37 C 1168.17 1451.43 1176.83 1465.49 1186.39 1479.52 L 1213.1 1516.13 C 1219.94 1525.27 1228.17 1539.19 1238.66 1544.3 C 1245.55 1547.64 1254.5 1548.18 1262.04 1549.42 L 1285.95 1554.31 C 1277.42 1556.15 1270.52 1566.96 1265.97 1574 C 1245.12 1606.22 1237.64 1645.02 1227.92 1681.54 C 1223.26 1699.02 1217.34 1716.95 1215.49 1734.96 L 1208.62 1731.09 C 1197.08 1765.42 1185.62 1800.45 1184.84 1837.02 C 1184.64 1846.59 1184.48 1856.45 1186.42 1865.86 C 1192.09 1893.48 1205.46 1920.38 1216.92 1946 C 1227.91 1970.56 1237.04 1996.1 1249.05 2020.2 L 1252.12 2026.15 L 1171.74 2038.6 L 1146.08 2041.6 L 1067.22 2046.06 L 1060.1 2048 L 973.898 2048 L 970.048 2045.97 L 901.165 2041.57 L 854.125 2035.86 C 840.143 2035.34 824.746 2030.92 811 2028.12 C 782.94 2022.39 754.842 2016.59 727.316 2008.6 L 659.92 1986.23 C 662.504 1966.61 665.522 1947.63 665.734 1927.77 C 665.926 1909.65 663.799 1891.53 662.802 1873.46 C 662.389 1865.98 663.4 1855.94 661.342 1848.87 L 660.857 1847.31 C 649.053 1870.54 632.78 1889.59 617.286 1910.27 C 606.341 1924.88 596.259 1940.22 583.861 1953.66 C 560.777 1945.11 537.649 1931.47 516.45 1919 C 485.196 1900.63 454.217 1881.52 424.839 1860.22 L 378.041 1823.17 C 365.217 1812.78 349.424 1800.88 338.874 1788.24 L 280.134 1729.48 C 219.957 1665.23 166.948 1596.13 124.568 1518.86 L 107.697 1487.19 C 103.002 1478.49 97.8707 1470.25 94.1193 1461.09 C 99.3426 1452.96 106.254 1445.64 110.576 1436.98 C 121.84 1414.43 123.215 1388.86 127.756 1364.51 C 129.745 1353.85 133.135 1343.08 137.137 1333 C 145.054 1313.05 155.558 1293.74 167.198 1275.7 C 178.401 1258.35 190.951 1241.52 201.047 1223.5 C 221.63 1186.77 230.107 1145.32 238.754 1104.55 L 254.726 1020.87 C 279.669 1021.37 304.302 1021.31 328.969 1017.11 C 338.849 1015.43 348.716 1012.74 358.299 1009.83 C 365.434 1007.66 373.652 1003.82 381.157 1004.23 C 382.45 1002.09 392.607 1000.14 395.211 999.476 z"/>
<path transform="translate(0,0)" fill="rgb(253,186,163)" d="M 512.016 1098.5 L 514.532 1098.06 C 522.273 1101.77 528.237 1109.8 533.764 1116.2 L 563.868 1153.52 L 612.799 1222.1 L 641.545 1267.76 C 654.569 1287.55 669.744 1305.93 680.127 1327.35 C 695.227 1358.51 705.45 1393.38 713.794 1426.94 L 720.327 1459.14 C 720.972 1463.01 722.367 1467.93 721.85 1471.79 L 718.351 1473.03 L 705.687 1477.16 C 703.882 1473.33 703.603 1467.39 702.81 1463.17 L 696.538 1435.4 L 679.199 1381 C 670.594 1356.17 661.593 1331.44 648.58 1308.5 C 624.984 1266.91 596.262 1227.64 568.242 1188.93 L 525.422 1131.65 C 520.577 1124.66 513.786 1115.61 511.046 1107.5 C 509.686 1103.47 510.368 1102.08 512.016 1098.5 z"/>
<path transform="translate(0,0)" fill="rgb(154,203,245)" d="M 616.747 1176.65 C 623.855 1179.75 627.947 1188.1 634.5 1192.6 L 635.625 1193.56 C 638.985 1196.15 647.042 1197.5 651.318 1198.46 L 652.811 1196 C 656.432 1203.17 660.205 1210.25 662.333 1218.05 L 707.575 1219.71 L 729.087 1221.25 C 730.878 1221.4 735.245 1222.22 736.865 1221.69 C 737.262 1221.56 737.51 1221.16 737.833 1220.89 C 743.076 1222.76 748.997 1221.95 754.5 1222.35 C 760.284 1222.76 766.145 1223.85 771.916 1224.52 L 838 1233.66 C 852.58 1235.85 867.907 1237.35 882.119 1241.32 L 872.487 1258.22 C 864.374 1267.99 859.673 1280.31 858.513 1292.94 C 854.92 1309.5 850.754 1325.75 845.555 1341.88 C 842.626 1350.97 836.962 1360.88 835.895 1370.26 C 835.038 1368.07 834.375 1366.06 833.756 1363.8 C 832.407 1358.87 826.305 1352.55 821.92 1350.16 C 817.023 1347.49 811.312 1347.03 806.023 1348.75 C 799.716 1350.81 793.443 1355.24 787.891 1358.89 C 768.307 1371.76 755.105 1384.42 745.137 1405.85 L 738.851 1420.69 L 702.157 1347.16 L 680.707 1299.24 L 653.814 1245 L 633.47 1208.14 C 627.564 1198.13 620.317 1187.71 616.747 1176.65 z"/>
<path transform="translate(0,0)" fill="rgb(192,227,253)" d="M 94.1193 1461.09 C 99.3426 1452.96 106.254 1445.64 110.576 1436.98 C 121.84 1414.43 123.215 1388.86 127.756 1364.51 C 129.745 1353.85 133.135 1343.08 137.137 1333 C 145.054 1313.05 155.558 1293.74 167.198 1275.7 C 178.401 1258.35 190.951 1241.52 201.047 1223.5 C 221.63 1186.77 230.107 1145.32 238.754 1104.55 L 254.726 1020.87 C 279.669 1021.37 304.302 1021.31 328.969 1017.11 C 338.849 1015.43 348.716 1012.74 358.299 1009.83 C 365.434 1007.66 373.652 1003.82 381.157 1004.23 L 380.261 1005.09 C 373.969 1010.98 366.665 1015.6 359.81 1020.79 L 330.673 1045.05 C 284.522 1087.42 259.957 1149.19 257.271 1211.05 C 254.229 1281.13 273.86 1348.46 292.923 1415.09 L 324.241 1517.28 C 337.564 1555.23 350.61 1593.04 360.335 1632.11 C 364.298 1648.03 368.569 1664.56 369.785 1680.96 C 371.231 1700.46 369.136 1720.01 364.664 1738.99 C 362.539 1748.01 360.078 1757.51 355.61 1765.7 C 351.291 1773.61 344.741 1781.42 338.874 1788.24 L 280.134 1729.48 C 219.957 1665.23 166.948 1596.13 124.568 1518.86 L 107.697 1487.19 C 103.002 1478.49 97.8707 1470.25 94.1193 1461.09 z"/>
<path transform="translate(0,0)" fill="rgb(211,64,23)" d="M 858.513 1292.94 L 858.701 1294.1 C 859.434 1299.05 859.162 1303.58 858.799 1308.54 C 858.682 1310.16 858.085 1313.55 858.52 1315.02 C 859.039 1316.77 861.674 1319.86 862.776 1321.44 C 869.501 1331.08 879.176 1340.44 888.586 1347.47 C 915.159 1367.34 947.296 1378 978.744 1387.32 L 1016.65 1393.83 C 1035.79 1395.36 1057.17 1397.57 1076.26 1395.02 C 1079.84 1388.98 1087.9 1386.75 1094.11 1384.32 C 1100.5 1385.81 1106.09 1388.03 1112.06 1390.73 C 1123.02 1396.83 1127.79 1405.94 1133.48 1416.61 C 1142.23 1423.08 1150.17 1430.03 1157.18 1438.37 C 1168.17 1451.43 1176.83 1465.49 1186.39 1479.52 L 1213.1 1516.13 C 1219.94 1525.27 1228.17 1539.19 1238.66 1544.3 C 1245.55 1547.64 1254.5 1548.18 1262.04 1549.42 L 1285.95 1554.31 C 1277.42 1556.15 1270.52 1566.96 1265.97 1574 C 1245.12 1606.22 1237.64 1645.02 1227.92 1681.54 C 1223.26 1699.02 1217.34 1716.95 1215.49 1734.96 L 1208.62 1731.09 C 1197.08 1765.42 1185.62 1800.45 1184.84 1837.02 C 1184.64 1846.59 1184.48 1856.45 1186.42 1865.86 C 1192.09 1893.48 1205.46 1920.38 1216.92 1946 C 1227.91 1970.56 1237.04 1996.1 1249.05 2020.2 L 1252.12 2026.15 L 1171.74 2038.6 L 1146.08 2041.6 L 1067.22 2046.06 L 1060.1 2048 L 973.898 2048 L 970.048 2045.97 L 901.165 2041.57 L 854.125 2035.86 C 840.143 2035.34 824.746 2030.92 811 2028.12 C 782.94 2022.39 754.842 2016.59 727.316 2008.6 L 659.92 1986.23 C 662.504 1966.61 665.522 1947.63 665.734 1927.77 C 665.926 1909.65 663.799 1891.53 662.802 1873.46 C 662.389 1865.98 663.4 1855.94 661.342 1848.87 L 660.857 1847.31 C 660.018 1845.02 660.545 1839.67 660.483 1837.09 C 660.064 1819.59 660.647 1801.97 666.355 1785.26 C 667.334 1777.53 667.413 1769.64 667.762 1761.86 C 667.88 1759.23 667.483 1755.03 668.173 1752.57 C 669.478 1747.94 676.52 1741.65 679.732 1738.12 L 702.87 1711.88 L 726.691 1681.37 C 745.576 1655.82 761.989 1627.86 777.29 1600.04 L 791.676 1577.31 C 795.873 1571.12 800.717 1564.74 803.554 1557.78 C 807.893 1547.13 804.767 1535.59 800.436 1525.51 C 795.546 1512.38 791.299 1497.97 782.146 1487.04 C 769.883 1472.41 752.749 1468.24 734.569 1466.75 C 738.108 1453.3 741.596 1435.54 739.069 1421.76 L 738.851 1420.69 L 745.137 1405.85 C 755.105 1384.42 768.307 1371.76 787.891 1358.89 C 793.443 1355.24 799.716 1350.81 806.023 1348.75 C 811.312 1347.03 817.023 1347.49 821.92 1350.16 C 826.305 1352.55 832.407 1358.87 833.756 1363.8 C 834.375 1366.06 835.038 1368.07 835.895 1370.26 C 836.962 1360.88 842.626 1350.97 845.555 1341.88 C 850.754 1325.75 854.92 1309.5 858.513 1292.94 z"/>
<path transform="translate(0,0)" fill="rgb(222,149,131)" d="M 970.048 2045.97 L 1067.22 2046.06 L 1060.1 2048 L 973.898 2048 L 970.048 2045.97 z"/>
<path transform="translate(0,0)" fill="rgb(156,19,3)" d="M 1146.08 2041.6 C 1144.27 2041.18 1143.8 2041.29 1142.38 2040 C 1159.59 1995.33 1162.57 1944.86 1169.85 1897.89 C 1171.29 1907.34 1170.03 1917.95 1169.56 1927.5 L 1168.09 1973.39 L 1169.31 2014.34 C 1169.95 2022.45 1171.59 2030.47 1171.74 2038.6 L 1146.08 2041.6 z"/>
<path transform="translate(0,0)" fill="rgb(156,19,3)" d="M 854.125 2035.86 L 856.032 1991.14 L 864.15 1780.52 L 864.982 1748.13 C 864.963 1742.23 863.563 1734.51 864.933 1728.93 C 868.209 1742.1 868.956 1755.22 870.363 1768.65 L 876.548 1829.76 L 891.283 1956.41 C 892.372 1965.18 903.162 2037.13 901.165 2041.57 L 854.125 2035.86 z"/>
<path transform="translate(0,0)" fill="rgb(255,207,183)" d="M 738.851 1420.69 L 745.137 1405.85 C 755.105 1384.42 768.307 1371.76 787.891 1358.89 C 793.443 1355.24 799.716 1350.81 806.023 1348.75 C 811.312 1347.03 817.023 1347.49 821.92 1350.16 C 826.305 1352.55 832.407 1358.87 833.756 1363.8 C 834.375 1366.06 835.038 1368.07 835.895 1370.26 L 836.293 1371.1 L 838.06 1373.82 C 846.699 1374.86 856.278 1374.62 862.222 1381.9 C 863.275 1383.19 863.894 1384.2 864.198 1385.87 C 864.729 1388.22 865.055 1390.26 865.135 1392.69 C 872.345 1391.5 880.448 1389.68 886.907 1394.34 C 889.77 1396.41 891.671 1399.46 891.981 1403 C 892.498 1408.91 891.664 1413.87 888.383 1418.94 C 890.024 1419.03 890.977 1418.84 892.571 1418.59 C 895.55 1418.12 897.162 1418.54 899.975 1419.5 C 903.284 1422.57 904.885 1425.23 905.118 1429.84 C 906.034 1447.91 894.075 1460.96 882.383 1473.07 C 860.13 1496.11 830.62 1514.9 800.436 1525.51 C 795.546 1512.38 791.299 1497.97 782.146 1487.04 C 769.883 1472.41 752.749 1468.24 734.569 1466.75 C 738.108 1453.3 741.596 1435.54 739.069 1421.76 L 738.851 1420.69 z"/>
<path transform="translate(0,0)" fill="rgb(222,149,131)" d="M 836.293 1371.1 L 838.06 1373.82 C 829.75 1375.82 822.53 1377.72 814.801 1381.41 C 807.734 1384.79 788.892 1397.71 783.294 1397.86 C 786.312 1394.71 791.196 1392.41 794.904 1390.05 L 813.693 1377.69 L 817.203 1375.62 C 821.819 1373.15 827.83 1370.53 833.111 1372.45 L 834.474 1373 L 836.293 1371.1 z"/>
<path transform="translate(0,0)" fill="rgb(253,186,163)" d="M 864.198 1385.87 C 864.729 1388.22 865.055 1390.26 865.135 1392.69 C 863.891 1394.16 864.361 1393.78 863.079 1394.77 C 846.697 1407.38 830.776 1424.66 812.037 1433.62 L 814.973 1428 C 823.158 1414.65 836.409 1406.23 848.897 1397.36 C 852.435 1394.84 857.087 1390.55 861.444 1389.74 L 863.202 1389.5 L 864.198 1385.87 z"/>
<path transform="translate(0,0)" fill="rgb(91,98,131)" d="M 1094.11 1384.32 C 1100.5 1385.81 1106.09 1388.03 1112.06 1390.73 C 1123.02 1396.83 1127.79 1405.94 1133.48 1416.61 C 1142.23 1423.08 1150.17 1430.03 1157.18 1438.37 C 1168.17 1451.43 1176.83 1465.49 1186.39 1479.52 L 1213.1 1516.13 C 1219.94 1525.27 1228.17 1539.19 1238.66 1544.3 C 1245.55 1547.64 1254.5 1548.18 1262.04 1549.42 L 1285.95 1554.31 C 1277.42 1556.15 1270.52 1566.96 1265.97 1574 C 1245.12 1606.22 1237.64 1645.02 1227.92 1681.54 C 1223.26 1699.02 1217.34 1716.95 1215.49 1734.96 L 1208.62 1731.09 C 1189.53 1716.61 1167.53 1704.94 1147.65 1691.42 L 1061.5 1630.64 L 1038.14 1616.73 C 1030.67 1612.71 1014.98 1606.86 1010.73 1599.29 C 1004.59 1588.33 1012.03 1548.85 1014.37 1535.32 L 1014.05 1533.68 C 1005.02 1524.56 993.425 1517.75 983.308 1509.94 C 976.154 1504.41 967.871 1495.16 967.051 1485.78 C 966.202 1476.05 972.87 1465.39 978.769 1458.14 L 984.512 1453.09 C 978.289 1446.68 967.99 1439.85 964.571 1431.43 C 961.407 1423.64 961.893 1408.11 965.523 1400.47 C 968.116 1395 972.955 1389.41 978.744 1387.32 L 1016.65 1393.83 C 1035.79 1395.36 1057.17 1397.57 1076.26 1395.02 C 1079.84 1388.98 1087.9 1386.75 1094.11 1384.32 z"/>
<path transform="translate(0,0)" fill="rgb(61,64,91)" d="M 1014.05 1533.68 C 1024.59 1535.74 1038.58 1540.62 1046.91 1547.5 L 1046.95 1549.5 C 1039.21 1550.52 1023.22 1540.56 1015.24 1537.48 L 1014.37 1535.32 L 1014.05 1533.68 z"/>
<path transform="translate(0,0)" fill="rgb(117,109,124)" d="M 1112.06 1390.73 C 1123.02 1396.83 1127.79 1405.94 1133.48 1416.61 L 1128.52 1415.52 C 1121.22 1413.11 1113.52 1401.59 1110.29 1395 L 1112.06 1390.73 z"/>
<path transform="translate(0,0)" fill="rgb(211,64,23)" d="M 1016.65 1393.83 C 1035.79 1395.36 1057.17 1397.57 1076.26 1395.02 C 1075.17 1397.63 1074.4 1401.48 1072 1402.85 C 1063.69 1400.19 1053.7 1401.99 1045 1401.35 C 1035.93 1400.69 1025.17 1397.03 1016.65 1393.83 z"/>
<path transform="translate(0,0)" fill="rgb(61,64,91)" d="M 1026.37 1416.5 C 1029.13 1415.81 1032.56 1415.77 1035.36 1416.29 C 1054.63 1419.85 1070.91 1433.67 1086.93 1443.83 C 1089.8 1445.65 1095.57 1447.5 1097.31 1450.05 L 1094.5 1452.16 C 1093.12 1453.21 1092.16 1453.3 1090.5 1453.65 C 1083.03 1446.52 1072.7 1441.09 1063.4 1436.72 C 1052.18 1431.45 1039.55 1428.75 1028.68 1423.04 C 1026.26 1421.77 1025.25 1421.4 1024.05 1419 L 1026.37 1416.5 z"/>
<path transform="translate(0,0)" fill="rgb(61,64,91)" d="M 984.512 1453.09 C 1013.43 1465.18 1039.44 1476.83 1065.5 1494.53 L 1066 1497 L 1063.5 1499.99 C 1055.89 1499.23 1044.71 1489.9 1037.66 1486.3 L 1005.01 1470.91 C 996.565 1467.24 985.554 1464.5 978.769 1458.14 L 984.512 1453.09 z"/>
</svg>