<svg version="1.1" xmlns="http://www.w3.org/2000/svg" style="display: block;" viewBox="0 0 2048 2048" width="768" height="768">
<defs>
	<linearGradient id="Gradient1" gradientUnits="userSpaceOnUse" x1="1037.61" y1="1347.67" x2="1070.18" y2="1087.82">
		<stop class="stop0" offset="0" stop-opacity="1" stop-color="rgb(235,93,42)"/>
		<stop class="stop1" offset="1" stop-opacity="1" stop-color="rgb(255,142,85)"/>
	</linearGradient>
</defs>
<path transform="translate(0,0)" fill="rgb(244,241,222)" d="M 131.133 2048 L -0 2048 L 0 -0 L 2048 0 L 2048 2048 L 1903.48 2048 L 1261.05 2048 L 899.895 2048 L 621.332 2048 L 602.95 2048 L 554.845 2048 L 131.133 2048 z"/>
<path transform="translate(0,0)" fill="rgb(242,189,144)" d="M 1310.11 1107.84 L 1310.75 1115.61 C 1310.9 1118.34 1311.57 1121.05 1312 1123.76 L 1313.25 1123.01 L 1314.5 1123 L 1314.93 1123.62 L 1302.01 1132.33 C 1301.35 1132.79 1299.4 1134.48 1298.66 1134.57 L 1296.65 1130.05 C 1303.08 1122.81 1307.2 1117.16 1310.11 1107.84 z"/>
<path transform="translate(0,0)" fill="rgb(61,64,91)" d="M 1357.06 1035.5 C 1357.86 1035.34 1358.67 1034.85 1359.48 1035.01 C 1360.97 1035.31 1376.97 1050.69 1381.46 1053.33 C 1391.43 1059.18 1402.84 1062.42 1412.68 1068.25 C 1416.33 1070.42 1419.32 1074.95 1420.5 1078.97 C 1412.8 1074.49 1405.81 1072.79 1397.5 1069.9 C 1388.41 1066.74 1379.43 1062.57 1371.19 1057.59 C 1366.54 1054.77 1361.54 1051.54 1358.76 1046.72 C 1356.51 1042.82 1355.85 1039.73 1357.06 1035.5 z"/>
<path transform="translate(0,0)" fill="rgb(203,196,191)" d="M 1295.26 1050.84 L 1297.14 1049.86 L 1300.06 1027.22 C 1308.07 1029.26 1318.21 1031.89 1322.87 1039.5 C 1325.33 1043.53 1323.55 1049.92 1322.37 1054.23 C 1320.69 1060.35 1318.6 1066.36 1315.66 1071.99 C 1313.72 1075.71 1310.77 1079.37 1309.56 1083.36 C 1305.85 1071.46 1301.33 1061.72 1295.26 1050.84 z"/>
<path transform="translate(0,0)" fill="rgb(61,64,91)" d="M 1380.92 982.5 C 1389.53 982.744 1398.1 986.701 1405.54 990.806 C 1423.27 1000.59 1439 1016.98 1444.69 1036.74 L 1442.5 1035.92 C 1430.66 1025.8 1417.96 1016.74 1405.22 1007.82 C 1397.48 1002.4 1389.65 996.366 1381.18 992.204 C 1379.24 991.252 1378.13 990.842 1376.87 989 C 1377.96 986.223 1378.92 984.712 1380.92 982.5 z"/>
<path transform="translate(0,0)" fill="rgb(18,32,55)" d="M 1295.45 1370.36 C 1297.26 1371.03 1297.98 1371.76 1299.21 1373.14 C 1304.85 1379.48 1312.97 1384.08 1319.18 1389.99 L 1319.32 1390.01 C 1327.1 1409.07 1328.72 1432.84 1331.63 1453.22 L 1330.29 1455.58 C 1328.84 1453.58 1329.32 1454.54 1328.51 1452.31 C 1325.67 1444.43 1324.28 1443.11 1316.89 1439.23 C 1312.33 1415.95 1305.65 1391.86 1295.45 1370.36 z"/>
<path transform="translate(0,0)" fill="rgb(242,189,144)" d="M 1636.11 1418.3 L 1688.28 1442.13 C 1684.95 1446.4 1684.48 1449.85 1682.85 1454.79 C 1678.49 1457.32 1675.54 1461.71 1672.7 1465.77 C 1671.54 1467.44 1670.24 1470.17 1668.46 1471.02 L 1637.7 1421.94 L 1636.11 1418.3 z"/>
<path transform="translate(0,0)" fill="rgb(253,144,84)" d="M 1121.12 1471.05 C 1124.5 1469.4 1127.41 1468.4 1131.14 1467.84 C 1143.14 1466.04 1156.59 1463.97 1168.69 1464.22 C 1166.29 1477.17 1164.91 1487.03 1153.19 1494.99 L 1138.4 1503.09 L 1131.11 1495.48 L 1121.12 1471.05 z"/>
<path transform="translate(0,0)" fill="rgb(148,30,21)" d="M 1286.95 1152.04 C 1291.82 1155.1 1295.48 1159.89 1297 1165.5 C 1298.49 1170.95 1295.07 1176.74 1292.2 1181.18 C 1280.47 1199.29 1260.26 1211.62 1247 1228.86 C 1246.73 1224.78 1249.25 1219.78 1250.57 1215.9 L 1261.31 1184.3 C 1263.94 1175.56 1265.46 1166.32 1268.59 1157.79 C 1272.43 1154.04 1281.74 1152.92 1286.95 1152.04 z"/>
<path transform="translate(0,0)" fill="rgb(211,64,23)" d="M 1475.39 837.103 C 1494.43 842.122 1520.9 849.461 1531.23 868.087 C 1532.45 870.29 1533.11 872.037 1533.27 874.528 C 1519.28 863.772 1497.03 865.856 1480.42 868.015 C 1466.67 869.801 1452.75 872.301 1439.56 876.626 C 1420.53 882.865 1402.39 892.404 1384.65 901.585 C 1376.79 905.65 1369.36 911.62 1361.22 914.796 L 1369.78 903.133 C 1371.63 902.72 1382.13 890.244 1384.51 887.852 C 1392.13 880.213 1400.02 873.297 1408.81 867.038 C 1424.28 856.028 1440.92 846.828 1459.1 841.189 C 1463.83 839.721 1468.86 839.481 1473.51 837.81 L 1475.39 837.103 z"/>
<path transform="translate(0,0)" fill="rgb(242,189,144)" d="M 1319.32 1390.01 C 1320.63 1389.5 1321.59 1388.71 1322.99 1389.23 C 1329.82 1391.8 1338.65 1402.27 1343.92 1407.41 L 1409.69 1474 L 1388.08 1508.5 C 1381.29 1519.08 1374.57 1529.92 1366.2 1539.35 C 1361.83 1544.28 1355.2 1546.48 1351.34 1550.84 C 1351.08 1547.54 1350.2 1544.23 1349.5 1540.99 L 1331.63 1453.22 C 1328.72 1432.84 1327.1 1409.07 1319.32 1390.01 z"/>
<path transform="translate(0,0)" fill="rgb(241,124,74)" d="M 1286.54 1358.59 C 1341.18 1346.45 1398 1348.75 1452.36 1333.66 C 1467.29 1329.52 1481.62 1325 1495.21 1317.45 C 1461.71 1366.73 1439.99 1422.85 1409.69 1474 L 1343.92 1407.41 C 1338.65 1402.27 1329.82 1391.8 1322.99 1389.23 C 1321.59 1388.71 1320.63 1389.5 1319.32 1390.01 L 1319.18 1389.99 C 1312.97 1384.08 1304.85 1379.48 1299.21 1373.14 C 1297.98 1371.76 1297.26 1371.03 1295.45 1370.36 C 1294.63 1369.93 1295.02 1370.24 1294.31 1369.17 L 1286.54 1358.59 z"/>
<path transform="translate(0,0)" fill="rgb(61,64,91)" d="M 1206.71 968.695 C 1199.43 967.063 1191.45 967.173 1184 966.712 C 1169.2 965.795 1148.2 965.873 1135.48 957.467 C 1127.06 951.907 1119.53 943.06 1112.32 935.987 C 1139.55 909.234 1173.64 884.153 1207.14 865.854 C 1260.33 836.805 1323.57 819.418 1384.41 821.409 C 1415.77 822.434 1445.34 828.323 1475.39 837.103 L 1473.51 837.81 C 1468.86 839.481 1463.83 839.721 1459.1 841.189 C 1440.92 846.828 1424.28 856.028 1408.81 867.038 C 1400.02 873.297 1392.13 880.213 1384.51 887.852 C 1382.13 890.244 1371.63 902.72 1369.78 903.133 L 1361.22 914.796 C 1336.64 936.335 1310.79 963.679 1301.02 995.679 C 1297.77 1006.33 1297.26 1017.61 1293.71 1028.08 C 1284.05 1008.14 1289.15 987.552 1263.73 978.764 C 1250.96 974.348 1236.28 971.587 1222.87 969.898 L 1206.71 968.695 z"/>
<path transform="translate(0,0)" fill="rgb(100,19,17)" d="M 1183.61 1483.8 C 1180.8 1466.49 1189.53 1448.76 1193.43 1432.16 C 1197.33 1415.56 1200.31 1396.16 1199.49 1379.12 L 1199.41 1377.68 L 1201.21 1380.33 C 1214.09 1398.41 1232.12 1416.12 1252.93 1424.73 C 1272.93 1432.99 1295.68 1435.42 1316.89 1439.23 C 1324.28 1443.11 1325.67 1444.43 1328.51 1452.31 C 1329.32 1454.54 1328.84 1453.58 1330.29 1455.58 L 1331.63 1453.22 L 1349.5 1540.99 C 1345.35 1544.18 1341.93 1548.79 1338.18 1552.56 C 1316.86 1574.06 1297.09 1597.06 1279.33 1621.61 L 1258.12 1653.63 C 1251.91 1663.74 1226.41 1712.91 1216.53 1715.71 L 1216.23 1714.84 C 1207.85 1702.47 1199.44 1690.13 1190.06 1678.49 L 1171.97 1657.5 C 1170.77 1656.01 1167.65 1652.22 1167.24 1650.48 C 1166.87 1648.91 1167.57 1645.41 1167.64 1643.6 C 1167.9 1637.1 1168.6 1629.4 1167.72 1623 C 1167.45 1620.97 1167.86 1620.72 1168.7 1618.91 C 1170.13 1621.57 1171.7 1624.17 1172.58 1627.07 L 1174.06 1625.56 C 1176.05 1620.75 1171.18 1608.5 1170.37 1602.99 L 1168.38 1582.75 C 1169.08 1580.91 1168.56 1581.75 1170 1580.26 C 1172.29 1582.44 1173.05 1585.6 1174.21 1588.5 C 1177.81 1597.59 1181.19 1603.8 1190.5 1608.18 L 1191.77 1607 C 1191.24 1598.75 1185.71 1589.8 1183.08 1581.79 L 1191.99 1571.83 C 1191.24 1561.91 1188.95 1554.09 1185.6 1544.71 C 1188.12 1544.27 1191.18 1543.81 1193.5 1542.7 C 1196.25 1541.38 1198.34 1538.01 1199.42 1535.28 C 1203.58 1524.71 1197.2 1508.96 1193.29 1498.91 L 1183.61 1483.8 z"/>
<path transform="translate(0,0)" fill="rgb(211,64,23)" d="M 1193.29 1498.91 C 1203.74 1505.84 1211.75 1521.4 1214.24 1533.54 C 1217.84 1551.15 1215.5 1569.92 1214.7 1587.73 L 1210.33 1649.28 C 1209.42 1658.01 1208.88 1667.16 1207.18 1675.77 C 1204.08 1672.88 1200.53 1669.92 1198.39 1666.23 C 1196.22 1662.5 1195.2 1658.19 1192.54 1654.74 C 1187.69 1648.44 1180.21 1643.6 1176.11 1636.88 C 1174.43 1634.12 1173.41 1630.73 1172.37 1627.68 L 1172.58 1627.07 L 1174.06 1625.56 C 1176.05 1620.75 1171.18 1608.5 1170.37 1602.99 L 1168.38 1582.75 C 1169.08 1580.91 1168.56 1581.75 1170 1580.26 C 1172.29 1582.44 1173.05 1585.6 1174.21 1588.5 C 1177.81 1597.59 1181.19 1603.8 1190.5 1608.18 L 1191.77 1607 C 1191.24 1598.75 1185.71 1589.8 1183.08 1581.79 L 1191.99 1571.83 C 1191.24 1561.91 1188.95 1554.09 1185.6 1544.71 C 1188.12 1544.27 1191.18 1543.81 1193.5 1542.7 C 1196.25 1541.38 1198.34 1538.01 1199.42 1535.28 C 1203.58 1524.71 1197.2 1508.96 1193.29 1498.91 z"/>
<path transform="translate(0,0)" fill="rgb(211,64,23)" d="M 1539.16 881.042 L 1578 879.659 C 1632.06 880.384 1665.57 897.777 1704.54 934.866 C 1739.02 967.678 1764.56 1008.54 1786.12 1050.7 C 1795.05 1068.16 1803.99 1085.93 1811.11 1104.21 L 1828.15 1155 C 1832.52 1168.9 1837.95 1183.29 1840.76 1197.55 L 1841.32 1200.38 C 1845.03 1209.45 1846.37 1219.38 1848.06 1229 C 1852.45 1254 1853.46 1279.48 1848.58 1304.5 C 1845.99 1317.85 1841.63 1330.36 1837.03 1343.11 C 1821.29 1383.51 1790.34 1424.55 1749.66 1442.11 C 1728.1 1451.42 1709.93 1450.56 1688.28 1442.13 L 1636.11 1418.3 C 1629.55 1413.53 1622.54 1408.91 1616.67 1403.3 C 1610.44 1397.34 1605.91 1390.3 1602.83 1382.26 C 1596.28 1365.13 1595.03 1345.14 1592.85 1327.07 C 1590.86 1310.64 1588.36 1294.24 1587.94 1277.67 L 1521.45 1297.29 C 1526.26 1289.73 1533.91 1283.54 1540.33 1277.33 L 1575.72 1244.55 L 1541.21 1227.94 C 1532.9 1223.7 1521.47 1218.62 1515.83 1211 C 1512.41 1206.38 1511.49 1201.16 1511.84 1195.52 C 1512.61 1182.92 1518.52 1168.6 1521.57 1156.29 C 1525.78 1139.27 1528.78 1122.14 1531.44 1104.83 L 1545.21 1014.25 C 1550.22 969.472 1546.52 926.981 1537.25 883 L 1539.16 881.042 z"/>
<path transform="translate(0,0)" fill="rgb(61,64,91)" d="M 1682.48 1222.95 C 1690 1214.36 1697.06 1205.95 1703.1 1196.22 C 1734.8 1145.13 1734.06 1084.58 1721.39 1027.71 L 1706.59 971.777 C 1712.19 979.059 1716.22 987.544 1720.36 995.711 C 1734.71 1024 1745 1057.52 1747.54 1089.21 C 1748.69 1103.49 1747.74 1117.92 1746.63 1132.16 C 1782.73 1144.96 1815.36 1172.89 1841.32 1200.38 C 1845.03 1209.45 1846.37 1219.38 1848.06 1229 C 1852.45 1254 1853.46 1279.48 1848.58 1304.5 C 1845.99 1317.85 1841.63 1330.36 1837.03 1343.11 C 1821.29 1383.51 1790.34 1424.55 1749.66 1442.11 C 1728.1 1451.42 1709.93 1450.56 1688.28 1442.13 L 1636.11 1418.3 C 1629.55 1413.53 1622.54 1408.91 1616.67 1403.3 C 1610.44 1397.34 1605.91 1390.3 1602.83 1382.26 C 1596.28 1365.13 1595.03 1345.14 1592.85 1327.07 C 1590.86 1310.64 1588.36 1294.24 1587.94 1277.67 L 1602.41 1273.07 C 1632.29 1262.43 1660.38 1246.7 1681.95 1223.03 L 1682.48 1222.95 z"/>
<path transform="translate(0,0)" fill="rgb(211,64,23)" d="M 726.24 1089.13 C 753.73 1072.06 778.412 1050.03 802.756 1028.83 L 863.978 975.186 C 882.104 958.869 899.321 940.048 920.312 927.331 C 938.634 916.23 959.774 909.021 981.033 906.36 C 1004.82 903.384 1030.89 911.949 1050.66 924.962 C 1058.8 930.317 1066.39 937.156 1074.11 943.12 C 1077.8 946.101 1080.6 948.576 1083.2 952.619 C 1086.55 961.325 1093.65 967.347 1102 971.082 C 1119.33 978.834 1137.49 977.847 1155.28 982.571 C 1158.59 981.782 1162.1 980.707 1165.25 982.5 C 1172.25 986.478 1179.6 994.317 1181.34 1002.29 C 1181.74 1004.14 1181.71 1005.95 1181.68 1007.83 L 1182.7 1014.69 C 1183.43 1031.2 1183.81 1044.4 1196.5 1056.13 C 1203.62 1062.7 1215.24 1072.52 1225.45 1072.17 C 1241.72 1071.61 1259.21 1062.96 1273.95 1056.67 C 1278.05 1054.92 1288.08 1049.52 1292.49 1049.85 C 1293.47 1049.92 1294.33 1050.51 1295.26 1050.84 C 1301.33 1061.72 1305.85 1071.46 1309.56 1083.36 C 1310.36 1091.68 1310.98 1099.51 1310.11 1107.84 C 1307.2 1117.16 1303.08 1122.81 1296.65 1130.05 L 1298.66 1134.57 C 1295.13 1138.11 1287.35 1145.1 1286.92 1150.08 L 1286.95 1152.04 C 1281.74 1152.92 1272.43 1154.04 1268.59 1157.79 C 1265.46 1166.32 1263.94 1175.56 1261.31 1184.3 L 1250.57 1215.9 C 1249.25 1219.78 1246.73 1224.78 1247 1228.86 C 1242.4 1236.64 1237.47 1244.65 1231.58 1251.52 C 1224.04 1260.3 1215.27 1267.46 1206.78 1275.22 L 1197.46 1283.12 C 1198.07 1292.77 1194.49 1300.32 1190.8 1308.97 C 1185.98 1320.31 1180.32 1331.79 1176.77 1343.6 C 1172.64 1357.36 1172.78 1372.07 1165.78 1385.05 C 1154.02 1375.43 1140.95 1368.15 1126.17 1364.41 C 1121.02 1363.25 1116.03 1362.28 1111.25 1359.97 C 1109.51 1358.01 1107.96 1357.49 1105.42 1356.82 C 1095.04 1354.09 1083.59 1354.05 1072.95 1351.6 C 1049.53 1346.19 1028.35 1338.35 1004.17 1335.47 L 997 1341.22 C 994.857 1340.3 993.824 1339.92 991.5 1340.31 L 990.164 1342.84 C 989.013 1341.41 989.706 1341.85 987.887 1341.32 C 979.418 1338.81 970.346 1338.31 961.725 1336.22 L 921.938 1324.53 L 886.643 1315.43 C 863.716 1308.52 842.236 1297.65 819.299 1290.69 C 821.095 1288.92 821.853 1287.52 822.453 1285.12 C 824.305 1277.72 826.846 1263.43 825.484 1255.85 C 824.833 1252.22 820.649 1246.58 818.635 1243.25 C 819.834 1239.23 821.538 1235.58 823.296 1231.79 C 829.648 1214.56 828.093 1199.3 822.98 1182.07 C 818.563 1175.33 795.525 1165.82 787.417 1160.42 C 776.832 1153.37 767.276 1145.2 757.629 1136.94 L 756.796 1135.81 L 752.219 1131.59 C 744.065 1123.87 738.049 1114.98 732.433 1105.3 C 729.306 1099.91 726.401 1095.5 726.24 1089.13 z"/>
<path transform="translate(0,0)" fill="rgb(63,26,20)" d="M 1052.65 969.567 C 1052.66 968.732 1052.63 968.372 1052.86 967.493 C 1054.13 962.829 1061.97 956.342 1065.35 952.5 C 1068.26 949.208 1070.43 945.631 1074.11 943.12 C 1077.8 946.101 1080.6 948.576 1083.2 952.619 C 1078.77 960.36 1075.49 965.926 1067.65 970.702 C 1062.32 968.68 1058.26 968.744 1052.65 969.567 z"/>
<path transform="translate(0,0)" fill="rgb(18,32,55)" d="M 1155.28 982.571 C 1158.59 981.782 1162.1 980.707 1165.25 982.5 C 1172.25 986.478 1179.6 994.317 1181.34 1002.29 C 1181.74 1004.14 1181.71 1005.95 1181.68 1007.83 L 1179.07 1013 C 1177.09 1017.05 1175.72 1019.44 1171.18 1020.89 C 1166.12 1022.51 1159.14 1020.45 1154.75 1017.81 C 1150.58 1015.3 1147.08 1010.86 1146.21 1006.01 C 1144.6 996.911 1150.33 989.498 1155.28 982.571 z"/>
<path transform="translate(0,0)" fill="rgb(148,30,21)" d="M 756.796 1135.81 C 756.275 1126.59 756.155 1114.68 762.978 1107.42 C 766.074 1104.13 774.118 1103.14 778.5 1104.01 C 781.078 1104.52 782.704 1106.78 783.787 1109.02 C 786.183 1113.99 786.951 1119.98 788.807 1125.19 C 791.274 1132.12 793.959 1140.74 797.144 1147.25 C 799.135 1151.32 802.135 1154.89 804.579 1158.7 L 803.691 1159.72 C 800.952 1157.7 798.796 1155.26 796.912 1152.43 L 796 1151 C 794.919 1149.43 794.209 1148.55 793.569 1146.71 L 793 1145 C 792.145 1143.02 791.29 1142.13 791.059 1139.88 L 791 1138.5 C 789.87 1137.21 789.49 1136.71 789.198 1134.96 L 789 1133.5 C 788.548 1131.96 787.866 1130.62 787.5 1129 C 787.088 1127.18 786.746 1125.74 786 1124 L 784.511 1123.54 L 783.477 1125.52 C 782.386 1128.37 779.637 1132.32 779.368 1135.17 L 779.383 1136.48 C 777.973 1138.17 777.086 1139.28 776.174 1141.31 C 775.358 1143.13 775.722 1142.73 774.522 1144.18 L 773.78 1144.98 C 774.856 1150.03 777.924 1150.83 781.609 1153.73 C 787.858 1158.65 794.454 1161.79 801.047 1166.06 C 802.185 1166.79 803.14 1167.21 804.34 1167.83 L 811.25 1171.51 L 818.791 1175.66 C 814.487 1161.18 802.893 1148.01 798.826 1133.34 L 798.825 1132 L 797.701 1124.68 C 800.886 1130.61 803.008 1137.01 805.703 1143.17 L 818.254 1169.19 C 820.236 1173.18 821.288 1178.09 824.846 1180.92 L 822.98 1182.07 C 818.563 1175.33 795.525 1165.82 787.417 1160.42 C 776.832 1153.37 767.276 1145.2 757.629 1136.94 L 756.796 1135.81 z"/>
<path transform="translate(0,0)" fill="rgb(18,32,55)" d="M 1052.65 969.567 C 1058.26 968.744 1062.32 968.68 1067.65 970.702 C 1074.76 973.647 1084.45 978.021 1088.86 984.5 C 1088.96 989.155 1088.08 993.904 1085.27 997.744 C 1083 1000.84 1080.01 1002.82 1076.48 1004.23 C 1059.23 1011.13 1036.3 1010.76 1017.84 1013.3 L 1044.05 983.076 C 1046.75 979.853 1051.46 975.304 1052.39 971.144 L 1052.65 969.567 z"/>
<path transform="translate(0,0)" fill="rgb(63,26,20)" d="M 797.701 1124.68 C 796.236 1119.94 794.747 1115.12 792.917 1110.5 C 790.802 1105.16 787.357 1099.87 788.11 1094 L 790 1092.65 C 798.645 1092.73 807.621 1098.46 813.931 1103.96 C 815.898 1108.06 818.107 1111.46 821.258 1114.75 C 830.96 1124.9 842.35 1132.59 852.588 1142.05 C 863.718 1152.35 873.804 1163.7 885.234 1173.69 C 893.822 1181.2 903.978 1187.75 911.517 1196.32 C 912.135 1198.31 912.006 1197.21 911.68 1199.61 C 907.038 1199.37 901.818 1197.07 897.403 1195.6 L 873.285 1188.47 C 857.488 1184.61 840.967 1182.97 824.846 1180.92 C 821.288 1178.09 820.236 1173.18 818.254 1169.19 L 805.703 1143.17 C 803.008 1137.01 800.886 1130.61 797.701 1124.68 z"/>
<path transform="translate(0,0)" fill="rgb(63,26,20)" d="M 942.374 1019.99 L 976.51 1088.63 L 1002.41 1146.11 C 1007.81 1158.13 1015.18 1170.38 1019.18 1182.91 C 1020.26 1186.29 1020.71 1189.96 1019.56 1193.4 C 1015.22 1206.39 995.185 1219.93 982.869 1225.08 C 972.74 1229.32 962.163 1226.23 952.508 1222.11 C 939.13 1216.41 923.98 1208.17 915.285 1196.27 C 914.162 1194.73 914.701 1195.39 913.149 1193.87 L 913.802 1192.3 C 918.804 1191.09 929.683 1197.5 934.612 1199.52 C 944.851 1203.71 958.149 1209.68 969.287 1209.72 C 972.097 1209.73 975.333 1208.48 977.245 1206.39 C 981.08 1202.21 983.381 1197.06 984.109 1191.47 C 986.637 1172.05 980.357 1149.35 976.085 1130.5 C 970.807 1107.21 965.047 1083.74 957.009 1061.23 L 947.001 1035.22 C 945.432 1031.34 942.101 1025.73 942.241 1021.59 L 942.374 1019.99 z"/>
<path transform="translate(0,0)" fill="rgb(148,30,21)" d="M 813.931 1103.96 C 820.109 1099.5 823.948 1091.61 828.864 1085.8 L 861.998 1047 C 871.029 1036.66 880.536 1026.34 888.504 1015.14 C 898.364 1001.29 905.932 986.387 914.849 971.98 C 923.891 981.146 929.578 992.62 935.184 1004.09 C 937.716 1009.27 940.744 1014.47 942.374 1019.99 L 942.241 1021.59 C 942.101 1025.73 945.432 1031.34 947.001 1035.22 L 957.009 1061.23 C 965.047 1083.74 970.807 1107.21 976.085 1130.5 C 980.357 1149.35 986.637 1172.05 984.109 1191.47 C 983.381 1197.06 981.08 1202.21 977.245 1206.39 C 975.333 1208.48 972.097 1209.73 969.287 1209.72 C 958.149 1209.68 944.851 1203.71 934.612 1199.52 C 929.683 1197.5 918.804 1191.09 913.802 1192.3 L 913.149 1193.87 L 911.517 1196.32 C 903.978 1187.75 893.822 1181.2 885.234 1173.69 C 873.804 1163.7 863.718 1152.35 852.588 1142.05 C 842.35 1132.59 830.96 1124.9 821.258 1114.75 C 818.107 1111.46 815.898 1108.06 813.931 1103.96 z"/>
<path transform="translate(0,0)" fill="url(#Gradient1)" d="M 823.296 1231.79 C 830.886 1236.09 836.401 1243.57 843.887 1248.44 C 862.556 1260.58 884.048 1270.31 904.32 1279.5 C 950.019 1300.21 999.978 1308.27 1050 1304.04 C 1066.78 1302.62 1083.53 1300.48 1099.38 1294.47 C 1120.18 1286.6 1137.86 1273.77 1154.97 1259.81 C 1170.24 1247.35 1184.46 1234.32 1197.81 1219.83 C 1206.62 1210.27 1216.02 1200.23 1222.5 1188.89 C 1230.09 1175.62 1231.48 1160.95 1237.81 1147.45 C 1247.48 1126.79 1269.27 1120.67 1289.08 1113.29 C 1291.13 1118.32 1293.05 1124.56 1295.98 1129.13 L 1296.65 1130.05 L 1298.66 1134.57 C 1295.13 1138.11 1287.35 1145.1 1286.92 1150.08 L 1286.95 1152.04 C 1281.74 1152.92 1272.43 1154.04 1268.59 1157.79 C 1265.46 1166.32 1263.94 1175.56 1261.31 1184.3 L 1250.57 1215.9 C 1249.25 1219.78 1246.73 1224.78 1247 1228.86 C 1242.4 1236.64 1237.47 1244.65 1231.58 1251.52 C 1224.04 1260.3 1215.27 1267.46 1206.78 1275.22 L 1197.46 1283.12 C 1198.07 1292.77 1194.49 1300.32 1190.8 1308.97 C 1185.98 1320.31 1180.32 1331.79 1176.77 1343.6 C 1172.64 1357.36 1172.78 1372.07 1165.78 1385.05 C 1154.02 1375.43 1140.95 1368.15 1126.17 1364.41 C 1121.02 1363.25 1116.03 1362.28 1111.25 1359.97 C 1109.51 1358.01 1107.96 1357.49 1105.42 1356.82 C 1095.04 1354.09 1083.59 1354.05 1072.95 1351.6 C 1049.53 1346.19 1028.35 1338.35 1004.17 1335.47 L 997 1341.22 C 994.857 1340.3 993.824 1339.92 991.5 1340.31 L 990.164 1342.84 C 989.013 1341.41 989.706 1341.85 987.887 1341.32 C 979.418 1338.81 970.346 1338.31 961.725 1336.22 L 921.938 1324.53 L 886.643 1315.43 C 863.716 1308.52 842.236 1297.65 819.299 1290.69 C 821.095 1288.92 821.853 1287.52 822.453 1285.12 C 824.305 1277.72 826.846 1263.43 825.484 1255.85 C 824.833 1252.22 820.649 1246.58 818.635 1243.25 C 819.834 1239.23 821.538 1235.58 823.296 1231.79 z"/>
<path transform="translate(0,0)" fill="rgb(241,124,74)" d="M 1111.25 1359.97 C 1149.48 1345.82 1165.84 1305.77 1197.46 1283.12 C 1198.07 1292.77 1194.49 1300.32 1190.8 1308.97 C 1185.98 1320.31 1180.32 1331.79 1176.77 1343.6 C 1172.64 1357.36 1172.78 1372.07 1165.78 1385.05 C 1154.02 1375.43 1140.95 1368.15 1126.17 1364.41 C 1121.02 1363.25 1116.03 1362.28 1111.25 1359.97 z"/>
<path transform="translate(0,0)" fill="rgb(61,64,91)" d="M 533.244 661.152 L 517.545 624.826 L 498.297 567.924 C 487.588 535.749 477.516 502.746 471.838 469.293 C 457.146 382.74 476.003 292.397 527.113 220.678 C 576.153 151.864 655.124 107.213 737.65 93.349 C 844.99 75.3166 952.829 105.984 1039.59 170.37 L 1078.71 202.438 C 1089.71 212.272 1100.56 222.825 1112.53 231.473 L 1114.01 232.553 C 1119.45 236.281 1128.02 236.004 1134.2 234.597 L 1136 234.161 C 1143.02 232.564 1149.26 230.09 1155.89 227.331 L 1155.83 228.15 C 1136.27 258.939 1106.71 279.154 1076.78 298.637 L 1010 331.851 L 978.413 344.624 C 972.308 346.913 964.897 348.898 959.349 352.314 C 955.151 354.9 951.049 361.392 947.991 365.276 L 929.965 386.951 C 918.899 399.145 906.612 410.301 893.273 419.965 C 880.07 429.532 866.026 436.943 851.173 443.558 C 833.283 451.526 813.394 457.175 798.879 471.02 C 786.426 482.898 778.577 503.222 773.01 519.164 C 767.285 535.558 764.257 554.672 756.101 569.935 C 738.308 566.493 726.329 556.964 710.582 548.791 C 680.045 532.941 636.196 519.562 604.83 540.076 C 587.049 551.704 578.363 570.868 573.946 590.822 L 554.953 627.839 C 548.548 640.135 543.671 651.626 533.244 661.152 z"/>
<path transform="translate(0,0)" fill="rgb(211,64,23)" d="M 573.946 590.822 C 578.363 570.868 587.049 551.704 604.83 540.076 C 636.196 519.562 680.045 532.941 710.582 548.791 C 726.329 556.964 738.308 566.493 756.101 569.935 C 764.257 554.672 767.285 535.558 773.01 519.164 C 778.577 503.222 786.426 482.898 798.879 471.02 C 813.394 457.175 833.283 451.526 851.173 443.558 C 866.026 436.943 880.07 429.532 893.273 419.965 C 906.612 410.301 918.899 399.145 929.965 386.951 L 947.991 365.276 C 951.049 361.392 955.151 354.9 959.349 352.314 C 964.897 348.898 972.308 346.913 978.413 344.624 L 1010 331.851 L 1076.78 298.637 L 1091.14 402.807 L 1097.46 435.12 C 1098.92 441.344 1101.21 447.789 1102.01 454.116 C 1103.19 463.483 1099.92 473.877 1098.58 483.175 C 1095.27 506.159 1102.96 531.493 1110.69 552.97 C 1118.48 574.612 1129.11 594.927 1141.28 614.403 L 1157.23 637.497 C 1160.38 641.679 1166.62 648.083 1167.99 653 C 1169.17 657.229 1166.01 662.075 1163.52 665.296 C 1152.37 679.685 1136.96 681.818 1120.17 683.969 L 1128.26 737 L 1127.44 737.965 L 1126.32 739.326 L 1125.21 740.596 C 1121.54 745.074 1119.63 755.017 1118.09 760.549 C 1112.24 781.636 1108.82 803.292 1108.79 825.196 C 1108.78 841.902 1111.74 860.524 1107.63 876.847 C 1095.22 878.372 1082.78 878.123 1070.32 878.817 C 1029.8 881.072 985.467 881.7 946.617 894.131 C 930.368 899.331 915.461 907.004 900.792 915.601 C 879.025 930.135 859.719 948.739 840.658 966.571 L 806.767 996.068 C 779.265 985.381 753.741 967.605 727.261 954.35 L 628.889 909.616 L 587.169 894.231 L 597.071 870.71 C 608.076 842.888 602.724 813.53 591.33 786.969 L 533.244 661.152 C 543.671 651.626 548.548 640.135 554.953 627.839 L 573.946 590.822 z"/>
<path transform="translate(0,0)" fill="rgb(63,26,20)" d="M 668.192 593.5 L 670.305 593.996 L 673.067 613.942 C 673.886 621.503 677.081 639.276 672.5 644.98 C 669.612 645.752 669.253 644.945 666.739 643.5 C 662.689 639.4 657.827 632.38 657.049 626.553 C 655.503 614.984 661.687 602.615 668.192 593.5 z"/>
<path transform="translate(0,0)" fill="rgb(63,26,20)" d="M 627.763 555.386 C 631.031 554.906 634.98 554.24 638.246 554.717 C 646.234 555.886 654.622 565.918 659.376 571.82 C 661.377 574.304 666.338 579.636 666 582.835 L 663.25 582.865 L 643.384 582.494 C 636.112 575.383 628.183 568.423 621.802 560.5 C 622.876 557.586 625.181 556.966 627.763 555.386 z"/>
<path transform="translate(0,0)" fill="rgb(61,64,91)" d="M 1037.48 568.687 L 1036.63 593.696 C 1017.91 600.366 999.698 597.085 981.196 591.838 C 978.965 591.056 977.942 590.593 976.444 588.741 C 976.666 585.683 976.328 581.877 978.5 579.513 C 999.5 580.98 1019.17 580.316 1037.48 568.687 z"/>
<path transform="translate(0,0)" fill="rgb(63,26,20)" d="M 1116.81 649.409 C 1123.72 648.982 1131.33 649.651 1137.68 652.482 C 1140.34 653.665 1143.36 656.333 1143.89 659.345 C 1144.47 662.672 1141.87 666.903 1140.01 669.429 C 1137.51 672.831 1133.04 677.706 1129.11 679.34 C 1126.27 680.522 1122.7 680.459 1119.67 680.873 L 1099.95 683.709 C 1093.6 684.658 1087.12 686.2 1081.28 682.657 C 1077.08 680.113 1072.25 676.871 1070.93 672 C 1071.4 669.34 1072.5 667.669 1074.31 665.727 C 1085.13 654.139 1101.71 650.47 1116.81 649.409 z"/>
<path transform="translate(0,0)" fill="rgb(48,36,42)" d="M 1051.6 482.405 C 1053.01 481.879 1056.3 482.121 1057.86 482.044 C 1065.14 481.685 1074.86 480.591 1081.79 483.255 L 1083 483.764 C 1084.62 484.422 1086.13 485.016 1087.5 486.142 C 1094.81 492.134 1094.5 499.631 1095.45 508.332 C 1073.09 517.55 1046.47 513.855 1022.94 514.189 C 1011.74 514.348 1000.4 515.723 989.242 516.727 C 973.995 518.202 958.29 518.886 943.401 522.568 C 956.06 514.649 968.342 506.275 981.848 499.81 C 1003.97 489.218 1027.36 484.704 1051.6 482.405 z"/>
<path transform="translate(0,0)" fill="rgb(63,26,20)" d="M 840.658 966.571 C 820.638 943.815 805.738 916.418 790.23 890.542 C 783.161 878.746 774.756 867.154 769.96 854.195 L 900.792 915.601 C 879.025 930.135 859.719 948.739 840.658 966.571 z"/>
<path transform="translate(0,0)" fill="rgb(63,26,20)" d="M 533.244 661.152 C 543.671 651.626 548.548 640.135 554.953 627.839 L 573.946 590.822 C 572.555 629.806 588.537 665.953 614.892 694.46 C 631.878 712.832 653.78 726.858 679 729.86 C 681.468 730.153 691.492 730.072 693.047 731.105 C 694.101 731.806 696.382 736.302 697.141 737.509 L 713.765 764.194 C 678.091 761.454 644.8 766.251 611.168 778.42 C 604.4 780.87 598.084 784.65 591.33 786.969 L 533.244 661.152 z"/>
<path transform="translate(0,0)" fill="rgb(211,64,23)" d="M 1562.74 1561.3 C 1581.59 1548.27 1601.33 1536.94 1621.01 1525.28 C 1635.86 1516.48 1654.4 1503.7 1671.22 1499.9 L 1672.25 1500.65 C 1681.02 1506.78 1693.69 1504.8 1704 1505.42 C 1710.47 1505.8 1717.15 1506.89 1723.52 1508.1 C 1738.73 1510.99 1753.31 1516.11 1766.93 1523.47 C 1813.9 1548.88 1839.23 1599.69 1859.18 1647.03 C 1869.89 1672.46 1879.47 1698.22 1887.56 1724.61 L 1896.05 1754.33 C 1897.89 1761.85 1899.1 1770.8 1902.3 1777.84 C 1903.29 1778.5 1904.24 1779 1905 1779.93 L 1903.14 1781.5 L 1903.48 2048 L 1261.05 2048 L 1263.17 2042.92 C 1268.08 2029.84 1275.35 2016.85 1282.12 2004.62 L 1226.11 1961.75 C 1228 1957.61 1227.89 1952.96 1228.54 1948.5 L 1232.29 1923.07 L 1239.51 1880.06 C 1240.6 1874.95 1242.99 1870.2 1243.77 1865.05 C 1244.05 1863.21 1244.35 1862.22 1245.5 1860.67 C 1247.03 1862.41 1246.19 1861.66 1248 1862.94 L 1249.81 1860.91 C 1249.24 1860.43 1248.45 1860.13 1248.09 1859.47 C 1247.66 1858.67 1248.07 1853.55 1248.05 1852.43 L 1246.52 1828.37 C 1244.05 1799.48 1240.32 1768.15 1229.55 1741.03 C 1226.03 1732.16 1221.1 1724.06 1216.53 1715.71 C 1226.41 1712.91 1251.91 1663.74 1258.12 1653.63 L 1279.33 1621.61 C 1297.09 1597.06 1316.86 1574.06 1338.18 1552.56 C 1341.93 1548.79 1345.35 1544.18 1349.5 1540.99 C 1350.2 1544.23 1351.08 1547.54 1351.34 1550.84 L 1357.37 1579.26 L 1370.78 1626.29 C 1377.2 1642.07 1383.4 1658.27 1392.19 1672.92 L 1562.74 1561.3 z"/>
<path transform="translate(0,0)" fill="rgb(148,30,21)" d="M 1562.74 1561.3 L 1563.61 1563.26 C 1565.69 1562.94 1564.73 1563.19 1566.5 1562.58 L 1568 1563.26 L 1588.89 1553.66 L 1607.34 1547.03 C 1614.73 1544.16 1621.66 1540.94 1629.41 1539.06 C 1605.78 1552.04 1583.44 1567.09 1561 1582.02 C 1538.55 1596.96 1515.43 1611.31 1494.23 1628.02 C 1473.21 1644.57 1454.87 1663.6 1437.51 1683.9 C 1418.51 1706.12 1401.1 1727.68 1392.77 1756.22 L 1380.36 1804.5 L 1335.64 1974.1 C 1330.05 1993.31 1325.38 2013.6 1318.25 2032.25 C 1310.74 2035.29 1268.09 2044.81 1263.17 2042.92 C 1268.08 2029.84 1275.35 2016.85 1282.12 2004.62 L 1226.11 1961.75 C 1228 1957.61 1227.89 1952.96 1228.54 1948.5 L 1232.29 1923.07 L 1239.51 1880.06 C 1240.6 1874.95 1242.99 1870.2 1243.77 1865.05 C 1244.05 1863.21 1244.35 1862.22 1245.5 1860.67 C 1247.03 1862.41 1246.19 1861.66 1248 1862.94 L 1249.81 1860.91 C 1249.24 1860.43 1248.45 1860.13 1248.09 1859.47 C 1247.66 1858.67 1248.07 1853.55 1248.05 1852.43 L 1246.52 1828.37 C 1244.05 1799.48 1240.32 1768.15 1229.55 1741.03 C 1226.03 1732.16 1221.1 1724.06 1216.53 1715.71 C 1226.41 1712.91 1251.91 1663.74 1258.12 1653.63 L 1279.33 1621.61 C 1297.09 1597.06 1316.86 1574.06 1338.18 1552.56 C 1341.93 1548.79 1345.35 1544.18 1349.5 1540.99 C 1350.2 1544.23 1351.08 1547.54 1351.34 1550.84 L 1357.37 1579.26 L 1370.78 1626.29 C 1377.2 1642.07 1383.4 1658.27 1392.19 1672.92 L 1562.74 1561.3 z"/>
<path transform="translate(0,0)" fill="rgb(18,32,55)" d="M 1216.53 1715.71 C 1226.41 1712.91 1251.91 1663.74 1258.12 1653.63 L 1279.33 1621.61 C 1297.09 1597.06 1316.86 1574.06 1338.18 1552.56 C 1341.93 1548.79 1345.35 1544.18 1349.5 1540.99 C 1350.2 1544.23 1351.08 1547.54 1351.34 1550.84 L 1357.37 1579.26 L 1370.78 1626.29 C 1364.91 1633.9 1360.82 1642.84 1356.39 1651.33 L 1332.22 1699.47 L 1271.83 1818 L 1249.81 1860.91 C 1249.24 1860.43 1248.45 1860.13 1248.09 1859.47 C 1247.66 1858.67 1248.07 1853.55 1248.05 1852.43 L 1246.52 1828.37 C 1244.05 1799.48 1240.32 1768.15 1229.55 1741.03 C 1226.03 1732.16 1221.1 1724.06 1216.53 1715.71 z"/>
<path transform="translate(0,0)" fill="rgb(244,241,222)" d="M 819.299 1290.69 C 842.236 1297.65 863.716 1308.52 886.643 1315.43 L 921.938 1324.53 L 961.725 1336.22 C 970.346 1338.31 979.418 1338.81 987.887 1341.32 C 989.706 1341.85 989.013 1341.41 990.164 1342.84 L 991.5 1340.31 C 993.824 1339.92 994.857 1340.3 997 1341.22 L 1004.17 1335.47 C 1028.35 1338.35 1049.53 1346.19 1072.95 1351.6 C 1083.59 1354.05 1095.04 1354.09 1105.42 1356.82 C 1107.96 1357.49 1109.51 1358.01 1111.25 1359.97 C 1116.03 1362.28 1121.02 1363.25 1126.17 1364.41 C 1140.95 1368.15 1154.02 1375.43 1165.78 1385.05 C 1168.37 1389.54 1169.65 1396.34 1168.26 1401.47 C 1167.57 1403.99 1165.77 1405.65 1163.62 1406.93 L 1162.4 1408 C 1164.37 1420.36 1171.58 1433.47 1171.77 1445.8 C 1171.85 1451.67 1169.85 1458.43 1168.69 1464.22 C 1156.59 1463.97 1143.14 1466.04 1131.14 1467.84 C 1127.41 1468.4 1124.5 1469.4 1121.12 1471.05 L 1131.11 1495.48 L 1138.4 1503.09 C 1144.54 1511.98 1151.75 1523.89 1149.77 1535.05 C 1147.83 1546.02 1146.39 1557 1148 1568.14 C 1150.01 1582.04 1157.05 1595.78 1163.53 1608.05 C 1164.87 1610.59 1168.64 1616.24 1168.7 1618.91 C 1167.86 1620.72 1167.45 1620.97 1167.72 1623 C 1168.6 1629.4 1167.9 1637.1 1167.64 1643.6 C 1167.57 1645.41 1166.87 1648.91 1167.24 1650.48 C 1167.65 1652.22 1170.77 1656.01 1171.97 1657.5 L 1190.06 1678.49 C 1199.44 1690.13 1207.85 1702.47 1216.23 1714.84 L 1216.53 1715.71 C 1221.1 1724.06 1226.03 1732.16 1229.55 1741.03 C 1240.32 1768.15 1244.05 1799.48 1246.52 1828.37 L 1248.05 1852.43 C 1248.07 1853.55 1247.66 1858.67 1248.09 1859.47 C 1248.45 1860.13 1249.24 1860.43 1249.81 1860.91 L 1248 1862.94 C 1246.19 1861.66 1247.03 1862.41 1245.5 1860.67 C 1244.35 1862.22 1244.05 1863.21 1243.77 1865.05 C 1242.99 1870.2 1240.6 1874.95 1239.51 1880.06 L 1232.29 1923.07 L 1228.54 1948.5 C 1227.89 1952.96 1228 1957.61 1226.11 1961.75 L 1282.12 2004.62 C 1275.35 2016.85 1268.08 2029.84 1263.17 2042.92 L 1261.05 2048 L 899.895 2048 L 621.332 2048 L 602.95 2048 C 603.462 2026.11 600.705 2003.47 598.277 1981.76 L 593.235 1941.45 C 592.548 1935.86 590.788 1927.48 592.152 1922 C 592.422 1920.91 593.909 1919.07 594.529 1918.04 L 588.282 1891.79 C 583.08 1860.2 580.162 1820.09 597.468 1791.79 C 605.242 1779.08 615.454 1768.38 624.402 1756.56 L 649.374 1720.21 C 658.259 1707.9 670.42 1690.91 686.637 1688.82 L 688.024 1688.67 C 689.962 1683.71 689.609 1676.95 690.628 1671.6 C 692.975 1659.29 696.07 1646.98 700.309 1635.18 C 708.056 1613.62 718.273 1593.13 729.359 1573.1 C 733.87 1564.95 740.107 1557.17 743.478 1548.47 C 745.711 1542.72 744.689 1533.66 744.78 1527.49 C 744.957 1515.43 745.082 1503.78 748.031 1492 C 752.015 1476.09 759.088 1460.08 767.386 1445.99 L 777.891 1429.9 C 778.501 1428.86 780.616 1425.88 780.762 1424.82 C 781.117 1422.24 777.056 1416.47 776.714 1413.49 C 776.472 1411.37 778.262 1407.12 778.94 1405.03 C 780.895 1399.02 782.819 1393.13 784.27 1386.97 C 782.964 1386.53 782.638 1386.5 781.354 1385.63 C 778.943 1384 777.132 1381.36 776.802 1378.5 C 779.081 1370.28 787.793 1364.47 793.487 1358.5 C 794.576 1357.36 798.126 1353.7 798.479 1352.34 C 799.353 1348.99 798.311 1342.9 798.335 1339.23 C 798.417 1327.07 804.743 1322.86 812.426 1314.68 C 814.741 1312.22 813.932 1308.33 813.911 1305.2 C 813.865 1297.94 814.08 1295.98 819.299 1290.69 z"/>
<path transform="translate(0,0)" fill="rgb(242,189,144)" d="M 675.32 1866.84 C 689.717 1866.62 704.269 1864.99 718.624 1865.2 C 722.018 1865.25 725.168 1864.93 727.922 1867 L 727 1868.83 C 715.479 1870.35 703.82 1870.18 692.22 1870.08 C 686.857 1870.04 679.302 1870.42 674.359 1868.39 L 675.32 1866.84 z"/>
<path transform="translate(0,0)" fill="rgb(211,64,23)" d="M 857.481 1772.65 C 855.679 1767.78 853.415 1761.01 855.633 1755.94 C 857.059 1752.67 862.037 1749.14 865.432 1748.32 C 875.48 1745.91 884.481 1749.4 892.632 1755.05 C 910.893 1767.71 918.568 1786.31 926.763 1806.07 C 920.114 1805.72 914.306 1806.05 907.765 1807.3 C 901.758 1808.45 893.577 1810.8 887.5 1810 C 883.55 1809.47 878.658 1802.61 876.409 1799.44 C 873.332 1795.1 870.355 1790.89 867.753 1786.24 C 864.367 1780.19 863.778 1775.99 857.481 1772.65 z"/>
<path transform="translate(0,0)" fill="rgb(109,36,15)" d="M 857.481 1772.65 C 863.778 1775.99 864.367 1780.19 867.753 1786.24 C 870.355 1790.89 873.332 1795.1 876.409 1799.44 C 878.658 1802.61 883.55 1809.47 887.5 1810 C 893.577 1810.8 901.758 1808.45 907.765 1807.3 C 914.306 1806.05 920.114 1805.72 926.763 1806.07 C 930.897 1810.54 937.164 1814.02 942.412 1817.06 L 979 1836.03 C 984.921 1839.2 995.055 1846.85 1001.6 1847.79 C 1005.65 1848.37 1009.35 1843.55 1014.5 1845.04 C 1015.44 1846.22 1016.25 1847.35 1016.78 1848.78 C 1019.07 1854.98 1016.32 1862.05 1013.52 1867.65 C 1006.08 1882.48 992.878 1899.29 976.498 1904.48 C 964.606 1908.24 949.581 1907.48 938.5 1901.51 C 917.646 1890.28 913.317 1867.72 901.585 1849.38 C 895.803 1840.34 888.454 1832.57 881.974 1824.07 C 870.273 1808.73 863.316 1790.89 857.481 1772.65 z"/>
<path transform="translate(0,0)" fill="rgb(109,36,15)" d="M 1216.23 1714.84 L 1216.53 1715.71 C 1221.1 1724.06 1226.03 1732.16 1229.55 1741.03 C 1240.32 1768.15 1244.05 1799.48 1246.52 1828.37 L 1248.05 1852.43 C 1248.07 1853.55 1247.66 1858.67 1248.09 1859.47 C 1248.45 1860.13 1249.24 1860.43 1249.81 1860.91 L 1248 1862.94 C 1246.19 1861.66 1247.03 1862.41 1245.5 1860.67 C 1244.35 1862.22 1244.05 1863.21 1243.77 1865.05 C 1242.99 1870.2 1240.6 1874.95 1239.51 1880.06 L 1232.29 1923.07 L 1228.54 1948.5 C 1227.89 1952.96 1228 1957.61 1226.11 1961.75 L 1193.77 1939.88 L 1194.92 1935.69 C 1197.37 1925.95 1198.16 1915.95 1199.26 1906 C 1201.39 1886.84 1201.99 1867.69 1201.97 1848.41 C 1201.94 1829.72 1201.52 1811.15 1196.62 1792.98 C 1193.35 1780.9 1187.55 1770.36 1181.09 1759.72 C 1189.06 1756.21 1191.26 1748.35 1195.22 1741 C 1198.03 1735.79 1201.8 1731.19 1205.91 1726.94 C 1209.36 1723.38 1215.06 1719.78 1216.23 1714.84 z"/>
<path transform="translate(0,0)" fill="rgb(211,64,23)" d="M 819.299 1290.69 C 842.236 1297.65 863.716 1308.52 886.643 1315.43 L 921.938 1324.53 L 961.725 1336.22 C 970.346 1338.31 979.418 1338.81 987.887 1341.32 C 989.706 1341.85 989.013 1341.41 990.164 1342.84 L 991.5 1340.31 C 993.824 1339.92 994.857 1340.3 997 1341.22 L 1004.17 1335.47 C 1028.35 1338.35 1049.53 1346.19 1072.95 1351.6 C 1083.59 1354.05 1095.04 1354.09 1105.42 1356.82 C 1107.96 1357.49 1109.51 1358.01 1111.25 1359.97 C 1116.03 1362.28 1121.02 1363.25 1126.17 1364.41 C 1140.95 1368.15 1154.02 1375.43 1165.78 1385.05 C 1168.37 1389.54 1169.65 1396.34 1168.26 1401.47 C 1167.57 1403.99 1165.77 1405.65 1163.62 1406.93 L 1162.4 1408 C 1164.37 1420.36 1171.58 1433.47 1171.77 1445.8 C 1171.85 1451.67 1169.85 1458.43 1168.69 1464.22 C 1156.59 1463.97 1143.14 1466.04 1131.14 1467.84 C 1127.41 1468.4 1124.5 1469.4 1121.12 1471.05 L 1131.11 1495.48 L 1138.4 1503.09 C 1144.54 1511.98 1151.75 1523.89 1149.77 1535.05 C 1147.83 1546.02 1146.39 1557 1148 1568.14 C 1150.01 1582.04 1157.05 1595.78 1163.53 1608.05 C 1164.87 1610.59 1168.64 1616.24 1168.7 1618.91 C 1167.86 1620.72 1167.45 1620.97 1167.72 1623 C 1168.6 1629.4 1167.9 1637.1 1167.64 1643.6 C 1167.57 1645.41 1166.87 1648.91 1167.24 1650.48 C 1167.65 1652.22 1170.77 1656.01 1171.97 1657.5 L 1190.06 1678.49 C 1199.44 1690.13 1207.85 1702.47 1216.23 1714.84 C 1215.06 1719.78 1209.36 1723.38 1205.91 1726.94 C 1201.8 1731.19 1198.03 1735.79 1195.22 1741 C 1191.26 1748.35 1189.06 1756.21 1181.09 1759.72 C 1174.76 1750.39 1168.55 1740.83 1160.92 1732.5 C 1114.48 1681.75 1042.36 1652.79 976.191 1640.12 C 943.58 1633.88 905.126 1628.68 872 1634.74 C 836.972 1641.16 810.007 1662.21 785.056 1686.49 C 774.757 1696.51 764.25 1707.24 755.969 1719 C 746.42 1732.56 743.562 1745.74 746.642 1762 C 748.887 1773.85 756.836 1784.35 758.616 1795.65 C 756.533 1796.87 756.13 1796.66 753.858 1796.01 C 748.788 1794.54 743.484 1790.68 739.269 1787.55 C 726.237 1777.9 716.306 1767.02 708.984 1752.48 C 698.458 1731.58 692.695 1709.54 688.89 1686.59 C 686.002 1692.3 682.828 1697.85 681.625 1704.2 C 678.034 1723.13 682.585 1742.07 686.814 1760.51 C 690.548 1776.79 694.715 1793.48 699.912 1809.36 C 701.035 1812.79 702.272 1816.12 704.012 1819.29 C 691.732 1825.31 677.09 1832.29 671.942 1846.13 C 670.031 1851.27 669.264 1856.86 671.669 1861.93 C 672.613 1863.92 673.781 1865.29 675.32 1866.84 L 674.359 1868.39 C 671.211 1867.97 667.885 1867.43 664.717 1867.89 C 658.971 1868.72 653.72 1872.62 650.56 1877.39 C 645.913 1884.4 644.735 1896.12 646.587 1904.31 C 648.156 1911.24 653.209 1916.86 659.297 1920.25 C 667.944 1925.07 680.319 1926.69 690.014 1928.85 C 681.156 1930.82 667.044 1932.05 661.959 1940.4 C 659.654 1944.19 659.656 1948.88 660.989 1953 C 663.23 1959.92 668.392 1967.41 675.252 1970.37 C 684.073 1974.19 701.558 1972.48 711.344 1972.18 C 716.706 1986.21 722.115 1996.52 736.585 2002.87 C 750.369 2008.92 766.271 2011.82 780.903 2015.12 L 859.521 2033.84 C 873.098 2037.72 887.195 2041.73 899.895 2048 L 621.332 2048 L 602.95 2048 C 603.462 2026.11 600.705 2003.47 598.277 1981.76 L 593.235 1941.45 C 592.548 1935.86 590.788 1927.48 592.152 1922 C 592.422 1920.91 593.909 1919.07 594.529 1918.04 L 588.282 1891.79 C 583.08 1860.2 580.162 1820.09 597.468 1791.79 C 605.242 1779.08 615.454 1768.38 624.402 1756.56 L 649.374 1720.21 C 658.259 1707.9 670.42 1690.91 686.637 1688.82 L 688.024 1688.67 C 689.962 1683.71 689.609 1676.95 690.628 1671.6 C 692.975 1659.29 696.07 1646.98 700.309 1635.18 C 708.056 1613.62 718.273 1593.13 729.359 1573.1 C 733.87 1564.95 740.107 1557.17 743.478 1548.47 C 745.711 1542.72 744.689 1533.66 744.78 1527.49 C 744.957 1515.43 745.082 1503.78 748.031 1492 C 752.015 1476.09 759.088 1460.08 767.386 1445.99 L 777.891 1429.9 C 778.501 1428.86 780.616 1425.88 780.762 1424.82 C 781.117 1422.24 777.056 1416.47 776.714 1413.49 C 776.472 1411.37 778.262 1407.12 778.94 1405.03 C 780.895 1399.02 782.819 1393.13 784.27 1386.97 C 782.964 1386.53 782.638 1386.5 781.354 1385.63 C 778.943 1384 777.132 1381.36 776.802 1378.5 C 779.081 1370.28 787.793 1364.47 793.487 1358.5 C 794.576 1357.36 798.126 1353.7 798.479 1352.34 C 799.353 1348.99 798.311 1342.9 798.335 1339.23 C 798.417 1327.07 804.743 1322.86 812.426 1314.68 C 814.741 1312.22 813.932 1308.33 813.911 1305.2 C 813.865 1297.94 814.08 1295.98 819.299 1290.69 z"/>
<path transform="translate(0,0)" fill="rgb(18,32,55)" d="M 594.529 1918.04 L 611.666 1978.04 C 615.163 1991.57 619.943 2005.82 621.73 2019.68 C 622.902 2028.77 622.265 2038.89 621.332 2048 L 602.95 2048 C 603.462 2026.11 600.705 2003.47 598.277 1981.76 L 593.235 1941.45 C 592.548 1935.86 590.788 1927.48 592.152 1922 C 592.422 1920.91 593.909 1919.07 594.529 1918.04 z"/>
<path transform="translate(0,0)" fill="rgb(61,64,91)" d="M 1104.63 1447.89 C 1109.94 1451.4 1111.45 1455.57 1114.05 1461.31 L 1116.41 1461.66 C 1118.03 1464.73 1119.87 1467.81 1121.12 1471.05 L 1131.11 1495.48 C 1130.75 1497.54 1130.39 1499.43 1129.7 1501.41 C 1127.28 1508.35 1121.57 1515.55 1114.61 1518.3 C 1108.66 1520.64 1099.73 1520.49 1093.88 1517.95 C 1089.19 1515.92 1082.85 1510.79 1081.37 1505.68 C 1078.44 1495.5 1084.43 1484.66 1089.23 1476.16 L 1094.17 1472.12 C 1095.24 1470.06 1096.26 1467.8 1097.84 1466.07 C 1102.64 1460.81 1102.96 1454.54 1104.63 1447.89 z"/>
<path transform="translate(0,0)" fill="rgb(244,241,222)" d="M 1100.38 1495.5 C 1103.52 1494.96 1105.49 1494.49 1108.5 1495.95 C 1110.63 1498.52 1111.47 1499.71 1112.01 1503 C 1110.96 1506.18 1110.52 1506.4 1107.86 1508.5 C 1104.79 1509.24 1103.61 1509.33 1100.5 1508.26 C 1097.75 1505.78 1097.17 1504.57 1096.21 1501 C 1097.42 1497.81 1097.63 1497.51 1100.38 1495.5 z"/>
<path transform="translate(0,0)" fill="rgb(253,144,84)" d="M 1104.63 1447.89 C 1109.94 1451.4 1111.45 1455.57 1114.05 1461.31 C 1115.12 1464.61 1116.83 1467.41 1115.5 1470.71 L 1094.17 1472.12 C 1095.24 1470.06 1096.26 1467.8 1097.84 1466.07 C 1102.64 1460.81 1102.96 1454.54 1104.63 1447.89 z"/>
<path transform="translate(0,0)" fill="rgb(241,124,74)" d="M 819.299 1290.69 C 842.236 1297.65 863.716 1308.52 886.643 1315.43 L 921.938 1324.53 L 961.725 1336.22 C 970.346 1338.31 979.418 1338.81 987.887 1341.32 C 989.706 1341.85 989.013 1341.41 990.164 1342.84 L 991.5 1340.31 C 993.824 1339.92 994.857 1340.3 997 1341.22 L 1004.17 1335.47 C 1028.35 1338.35 1049.53 1346.19 1072.95 1351.6 C 1083.59 1354.05 1095.04 1354.09 1105.42 1356.82 C 1107.96 1357.49 1109.51 1358.01 1111.25 1359.97 C 1116.03 1362.28 1121.02 1363.25 1126.17 1364.41 C 1140.95 1368.15 1154.02 1375.43 1165.78 1385.05 C 1168.37 1389.54 1169.65 1396.34 1168.26 1401.47 C 1167.57 1403.99 1165.77 1405.65 1163.62 1406.93 L 1162.4 1408 C 1164.37 1420.36 1171.58 1433.47 1171.77 1445.8 C 1171.85 1451.67 1169.85 1458.43 1168.69 1464.22 C 1156.59 1463.97 1143.14 1466.04 1131.14 1467.84 C 1127.41 1468.4 1124.5 1469.4 1121.12 1471.05 C 1119.87 1467.81 1118.03 1464.73 1116.41 1461.66 L 1114.05 1461.31 C 1111.45 1455.57 1109.94 1451.4 1104.63 1447.89 C 1102.96 1454.54 1102.64 1460.81 1097.84 1466.07 C 1096.26 1467.8 1095.24 1470.06 1094.17 1472.12 L 1089.23 1476.16 C 1089.1 1473.49 1089.33 1471.46 1089.96 1468.86 L 1090.18 1468 C 1087.19 1465.42 1017.47 1459.25 1006.05 1457.54 C 953.562 1449.65 900.519 1434.5 851.169 1415.09 L 810.228 1397.69 C 801.959 1394.03 793.092 1388.73 784.27 1386.97 C 782.964 1386.53 782.638 1386.5 781.354 1385.63 C 778.943 1384 777.132 1381.36 776.802 1378.5 C 779.081 1370.28 787.793 1364.47 793.487 1358.5 C 794.576 1357.36 798.126 1353.7 798.479 1352.34 C 799.353 1348.99 798.311 1342.9 798.335 1339.23 C 798.417 1327.07 804.743 1322.86 812.426 1314.68 C 814.741 1312.22 813.932 1308.33 813.911 1305.2 C 813.865 1297.94 814.08 1295.98 819.299 1290.69 z"/>
<path transform="translate(0,0)" fill="rgb(241,124,74)" d="M 990.164 1342.84 L 991.5 1340.31 C 993.824 1339.92 994.857 1340.3 997 1341.22 L 1004.17 1335.47 C 1028.35 1338.35 1049.53 1346.19 1072.95 1351.6 C 1083.59 1354.05 1095.04 1354.09 1105.42 1356.82 C 1107.96 1357.49 1109.51 1358.01 1111.25 1359.97 C 1116.03 1362.28 1121.02 1363.25 1126.17 1364.41 C 1140.95 1368.15 1154.02 1375.43 1165.78 1385.05 C 1168.37 1389.54 1169.65 1396.34 1168.26 1401.47 C 1167.57 1403.99 1165.77 1405.65 1163.62 1406.93 L 1162.4 1408 C 1164.37 1420.36 1171.58 1433.47 1171.77 1445.8 C 1171.85 1451.67 1169.85 1458.43 1168.69 1464.22 C 1156.59 1463.97 1143.14 1466.04 1131.14 1467.84 C 1127.41 1468.4 1124.5 1469.4 1121.12 1471.05 C 1119.87 1467.81 1118.03 1464.73 1116.41 1461.66 L 1114.05 1461.31 C 1111.45 1455.57 1109.94 1451.4 1104.63 1447.89 C 1102.08 1446.93 1102.42 1446.26 1101.61 1443.8 C 1098.15 1433.29 1094.72 1422.66 1089.62 1412.81 C 1079.85 1393.92 1066.53 1377.07 1056.31 1358.35 L 1016 1349.66 C 1013.87 1349.32 1006.45 1347.48 1004.64 1348 C 1003.06 1348.47 999.413 1352.74 998.055 1354.12 C 990.886 1361.43 984.75 1368.98 976.371 1375 C 979.779 1363.88 985.748 1354.58 989.797 1343.84 L 990.164 1342.84 z"/>
<path transform="translate(0,0)" fill="rgb(18,32,55)" d="M 1056.31 1358.35 C 1058.39 1358.77 1060.15 1359.15 1062.06 1360.1 C 1079.84 1380.38 1095.33 1398.87 1104.02 1425 C 1108.22 1437.63 1110.25 1449.64 1116.41 1461.66 L 1114.05 1461.31 C 1111.45 1455.57 1109.94 1451.4 1104.63 1447.89 C 1102.08 1446.93 1102.42 1446.26 1101.61 1443.8 C 1098.15 1433.29 1094.72 1422.66 1089.62 1412.81 C 1079.85 1393.92 1066.53 1377.07 1056.31 1358.35 z"/>
<path transform="translate(0,0)" fill="rgb(61,64,91)" d="M 990.164 1342.84 L 991.5 1340.31 C 993.824 1339.92 994.857 1340.3 997 1341.22 L 1004.17 1335.47 C 1028.35 1338.35 1049.53 1346.19 1072.95 1351.6 C 1083.59 1354.05 1095.04 1354.09 1105.42 1356.82 C 1107.96 1357.49 1109.51 1358.01 1111.25 1359.97 C 1116.03 1362.28 1121.02 1363.25 1126.17 1364.41 C 1140.95 1368.15 1154.02 1375.43 1165.78 1385.05 C 1168.37 1389.54 1169.65 1396.34 1168.26 1401.47 C 1167.57 1403.99 1165.77 1405.65 1163.62 1406.93 C 1161.98 1400.79 1160.07 1394.4 1156.94 1388.83 C 1148.58 1373.95 1136.02 1370.48 1120.74 1365.98 C 1116.63 1365.72 1112.62 1364.76 1108.49 1364.51 C 1101.1 1364.06 1093.58 1364.66 1086.21 1363.98 C 1078.08 1363.24 1070.34 1359.45 1062.06 1360.1 C 1060.15 1359.15 1058.39 1358.77 1056.31 1358.35 L 1016 1349.66 C 1013.87 1349.32 1006.45 1347.48 1004.64 1348 C 1003.06 1348.47 999.413 1352.74 998.055 1354.12 C 990.886 1361.43 984.75 1368.98 976.371 1375 C 979.779 1363.88 985.748 1354.58 989.797 1343.84 L 990.164 1342.84 z"/>
<path transform="translate(0,0)" fill="rgb(61,64,91)" d="M 131.133 2048 L 129.604 1952.39 L 123.159 1634.87 L 121.926 1514.72 C 122.095 1473.56 123.215 1431.48 130.687 1390.92 C 140.961 1335.16 159.956 1280.04 191.4 1232.5 C 225.442 1181.04 272.446 1141.63 322.122 1106.03 L 381.095 1065.55 L 478.691 1004.37 L 463.152 1000.63 C 466.814 989.421 473.604 979.192 478.132 968.256 C 485.941 949.391 491.876 929.228 497.875 909.702 C 501.508 897.877 505.878 885.932 508.288 873.8 L 508.518 872.583 L 587.169 894.231 L 628.889 909.616 L 727.261 954.35 C 753.741 967.605 779.265 985.381 806.767 996.068 L 753.947 1043.05 C 742.011 1054.21 729.352 1065.62 721.538 1080.15 L 726.24 1089.13 C 726.401 1095.5 729.306 1099.91 732.433 1105.3 C 738.049 1114.98 744.065 1123.87 752.219 1131.59 L 756.796 1135.81 L 757.629 1136.94 C 767.276 1145.2 776.832 1153.37 787.417 1160.42 C 795.525 1165.82 818.563 1175.33 822.98 1182.07 C 828.093 1199.3 829.648 1214.56 823.296 1231.79 C 821.538 1235.58 819.834 1239.23 818.635 1243.25 C 820.649 1246.58 824.833 1252.22 825.484 1255.85 C 826.846 1263.43 824.305 1277.72 822.453 1285.12 C 821.853 1287.52 821.095 1288.92 819.299 1290.69 C 814.08 1295.98 813.865 1297.94 813.911 1305.2 C 813.932 1308.33 814.741 1312.22 812.426 1314.68 C 804.743 1322.86 798.417 1327.07 798.335 1339.23 C 798.311 1342.9 799.353 1348.99 798.479 1352.34 C 798.126 1353.7 794.576 1357.36 793.487 1358.5 C 787.793 1364.47 779.081 1370.28 776.802 1378.5 C 777.132 1381.36 778.943 1384 781.354 1385.63 C 782.638 1386.5 782.964 1386.53 784.27 1386.97 C 782.819 1393.13 780.895 1399.02 778.94 1405.03 C 778.262 1407.12 776.472 1411.37 776.714 1413.49 C 777.056 1416.47 781.117 1422.24 780.762 1424.82 C 780.616 1425.88 778.501 1428.86 777.891 1429.9 L 767.386 1445.99 C 759.088 1460.08 752.015 1476.09 748.031 1492 C 745.082 1503.78 744.957 1515.43 744.78 1527.49 C 744.689 1533.66 745.711 1542.72 743.478 1548.47 C 740.107 1557.17 733.87 1564.95 729.359 1573.1 C 718.273 1593.13 708.056 1613.62 700.309 1635.18 C 696.07 1646.98 692.975 1659.29 690.628 1671.6 C 689.609 1676.95 689.962 1683.71 688.024 1688.67 L 686.637 1688.82 C 670.42 1690.91 658.259 1707.9 649.374 1720.21 L 624.402 1756.56 C 615.454 1768.38 605.242 1779.08 597.468 1791.79 C 580.162 1820.09 583.08 1860.2 588.282 1891.79 L 594.529 1918.04 C 593.909 1919.07 592.422 1920.91 592.152 1922 C 590.788 1927.48 592.548 1935.86 593.235 1941.45 L 598.277 1981.76 C 600.705 2003.47 603.462 2026.11 602.95 2048 L 554.845 2048 L 131.133 2048 z"/>
</svg>